<svg width="1500" height="500" viewBox="0 0 1500 500" fill="none" xmlns="http://www.w3.org/2000/svg">
<g clip-path="url(#clip0_303_9615)">
<rect width="1500" height="500" fill="url(#paint0_linear_303_9615)"/>
<path fill-rule="evenodd" clip-rule="evenodd" d="M127 120V270H368.865V120H127ZM147.567 250.256V139.744H348.298V250.256H147.567Z" fill="#191919"/>
<path d="M197.887 163.053H169.505L179.925 228.867H315.94L326.36 163.053H297.841L292.631 200.347H263.563V163.053H234.222V200.347H202.96L197.887 163.053Z" fill="#191919"/>
<path d="M140.376 333.32C138.669 333.32 137.08 333.043 135.608 332.488C134.157 331.912 132.888 331.112 131.8 330.088C130.733 329.043 129.901 327.816 129.304 326.408C128.707 325 128.408 323.464 128.408 321.8C128.408 320.136 128.707 318.6 129.304 317.192C129.901 315.784 130.744 314.568 131.832 313.544C132.92 312.499 134.189 311.699 135.64 311.144C137.091 310.568 138.68 310.28 140.408 310.28C142.243 310.28 143.917 310.6 145.432 311.24C146.947 311.859 148.227 312.787 149.272 314.024L146.584 316.552C145.773 315.677 144.867 315.027 143.864 314.6C142.861 314.152 141.773 313.928 140.6 313.928C139.427 313.928 138.349 314.12 137.368 314.504C136.408 314.888 135.565 315.432 134.84 316.136C134.136 316.84 133.581 317.672 133.176 318.632C132.792 319.592 132.6 320.648 132.6 321.8C132.6 322.952 132.792 324.008 133.176 324.968C133.581 325.928 134.136 326.76 134.84 327.464C135.565 328.168 136.408 328.712 137.368 329.096C138.349 329.48 139.427 329.672 140.6 329.672C141.773 329.672 142.861 329.459 143.864 329.032C144.867 328.584 145.773 327.912 146.584 327.016L149.272 329.576C148.227 330.792 146.947 331.72 145.432 332.36C143.917 333 142.232 333.32 140.376 333.32ZM152.874 333V315.912H156.682V320.616L156.234 319.24C156.746 318.088 157.546 317.213 158.634 316.616C159.743 316.019 161.119 315.72 162.762 315.72V319.528C162.591 319.485 162.431 319.464 162.282 319.464C162.133 319.443 161.983 319.432 161.834 319.432C160.319 319.432 159.114 319.88 158.218 320.776C157.322 321.651 156.874 322.963 156.874 324.712V333H152.874ZM174.031 333.224C172.132 333.224 170.468 332.851 169.039 332.104C167.631 331.336 166.532 330.291 165.743 328.968C164.975 327.645 164.591 326.141 164.591 324.456C164.591 322.749 164.964 321.245 165.711 319.944C166.479 318.621 167.524 317.587 168.847 316.84C170.191 316.093 171.716 315.72 173.423 315.72C175.087 315.72 176.57 316.083 177.871 316.808C179.172 317.533 180.196 318.557 180.943 319.88C181.69 321.203 182.063 322.76 182.063 324.552C182.063 324.723 182.052 324.915 182.031 325.128C182.031 325.341 182.02 325.544 181.999 325.736H167.759V323.08H179.887L178.319 323.912C178.34 322.931 178.138 322.067 177.711 321.32C177.284 320.573 176.698 319.987 175.951 319.56C175.226 319.133 174.383 318.92 173.423 318.92C172.442 318.92 171.578 319.133 170.831 319.56C170.106 319.987 169.53 320.584 169.103 321.352C168.698 322.099 168.495 322.984 168.495 324.008V324.648C168.495 325.672 168.73 326.579 169.199 327.368C169.668 328.157 170.33 328.765 171.183 329.192C172.036 329.619 173.018 329.832 174.127 329.832C175.087 329.832 175.951 329.683 176.719 329.384C177.487 329.085 178.17 328.616 178.767 327.976L180.911 330.44C180.143 331.336 179.172 332.029 177.999 332.52C176.847 332.989 175.524 333.224 174.031 333.224ZM195.965 333V329.544L195.741 328.808V322.76C195.741 321.587 195.389 320.68 194.685 320.04C193.981 319.379 192.914 319.048 191.485 319.048C190.525 319.048 189.575 319.197 188.637 319.496C187.719 319.795 186.941 320.211 186.301 320.744L184.733 317.832C185.65 317.128 186.738 316.605 187.997 316.264C189.277 315.901 190.599 315.72 191.965 315.72C194.439 315.72 196.349 316.317 197.693 317.512C199.058 318.685 199.741 320.509 199.741 322.984V333H195.965ZM190.589 333.224C189.309 333.224 188.189 333.011 187.229 332.584C186.269 332.136 185.522 331.528 184.989 330.76C184.477 329.971 184.221 329.085 184.221 328.104C184.221 327.144 184.445 326.28 184.893 325.512C185.362 324.744 186.119 324.136 187.165 323.688C188.21 323.24 189.597 323.016 191.325 323.016H196.285V325.672H191.613C190.247 325.672 189.33 325.896 188.861 326.344C188.391 326.771 188.157 327.304 188.157 327.944C188.157 328.669 188.445 329.245 189.021 329.672C189.597 330.099 190.397 330.312 191.421 330.312C192.402 330.312 193.277 330.088 194.045 329.64C194.834 329.192 195.399 328.531 195.741 327.656L196.413 330.056C196.029 331.059 195.335 331.837 194.333 332.392C193.351 332.947 192.103 333.224 190.589 333.224ZM211.306 333.224C209.429 333.224 207.978 332.744 206.954 331.784C205.93 330.803 205.418 329.363 205.418 327.464V312.136H209.418V327.368C209.418 328.179 209.621 328.808 210.026 329.256C210.453 329.704 211.039 329.928 211.786 329.928C212.682 329.928 213.429 329.693 214.026 329.224L215.146 332.072C214.677 332.456 214.101 332.744 213.418 332.936C212.735 333.128 212.031 333.224 211.306 333.224ZM202.602 319.24V316.04H213.994V319.24H202.602ZM225.906 333.224C224.007 333.224 222.343 332.851 220.914 332.104C219.506 331.336 218.407 330.291 217.618 328.968C216.85 327.645 216.466 326.141 216.466 324.456C216.466 322.749 216.839 321.245 217.586 319.944C218.354 318.621 219.399 317.587 220.722 316.84C222.066 316.093 223.591 315.72 225.298 315.72C226.962 315.72 228.445 316.083 229.746 316.808C231.047 317.533 232.071 318.557 232.818 319.88C233.565 321.203 233.938 322.76 233.938 324.552C233.938 324.723 233.927 324.915 233.906 325.128C233.906 325.341 233.895 325.544 233.874 325.736H219.634V323.08H231.762L230.194 323.912C230.215 322.931 230.013 322.067 229.586 321.32C229.159 320.573 228.573 319.987 227.826 319.56C227.101 319.133 226.258 318.92 225.298 318.92C224.317 318.92 223.453 319.133 222.706 319.56C221.981 319.987 221.405 320.584 220.978 321.352C220.573 322.099 220.37 322.984 220.37 324.008V324.648C220.37 325.672 220.605 326.579 221.074 327.368C221.543 328.157 222.205 328.765 223.058 329.192C223.911 329.619 224.893 329.832 226.002 329.832C226.962 329.832 227.826 329.683 228.594 329.384C229.362 329.085 230.045 328.616 230.642 327.976L232.786 330.44C232.018 331.336 231.047 332.029 229.874 332.52C228.722 332.989 227.399 333.224 225.906 333.224ZM268.192 315.72C269.557 315.72 270.763 315.987 271.808 316.52C272.875 317.053 273.707 317.875 274.304 318.984C274.901 320.072 275.2 321.48 275.2 323.208V333H271.2V323.72C271.2 322.205 270.869 321.075 270.208 320.328C269.547 319.581 268.597 319.208 267.36 319.208C266.485 319.208 265.707 319.4 265.024 319.784C264.363 320.168 263.84 320.733 263.456 321.48C263.093 322.227 262.912 323.176 262.912 324.328V333H258.912V323.72C258.912 322.205 258.581 321.075 257.92 320.328C257.259 319.581 256.309 319.208 255.072 319.208C254.197 319.208 253.419 319.4 252.736 319.784C252.075 320.168 251.552 320.733 251.168 321.48C250.805 322.227 250.624 323.176 250.624 324.328V333H246.624V315.912H250.432V320.456L249.76 319.112C250.336 318.003 251.168 317.16 252.256 316.584C253.365 316.008 254.624 315.72 256.032 315.72C257.632 315.72 259.019 316.115 260.192 316.904C261.387 317.693 262.176 318.888 262.56 320.488L260.992 319.944C261.547 318.664 262.464 317.64 263.744 316.872C265.024 316.104 266.507 315.72 268.192 315.72ZM290.84 333V329.544L290.616 328.808V322.76C290.616 321.587 290.264 320.68 289.56 320.04C288.856 319.379 287.789 319.048 286.36 319.048C285.4 319.048 284.45 319.197 283.512 319.496C282.594 319.795 281.816 320.211 281.176 320.744L279.608 317.832C280.525 317.128 281.613 316.605 282.872 316.264C284.152 315.901 285.474 315.72 286.84 315.72C289.314 315.72 291.224 316.317 292.568 317.512C293.933 318.685 294.616 320.509 294.616 322.984V333H290.84ZM285.464 333.224C284.184 333.224 283.064 333.011 282.104 332.584C281.144 332.136 280.397 331.528 279.864 330.76C279.352 329.971 279.096 329.085 279.096 328.104C279.096 327.144 279.32 326.28 279.768 325.512C280.237 324.744 280.994 324.136 282.04 323.688C283.085 323.24 284.472 323.016 286.2 323.016H291.16V325.672H286.488C285.122 325.672 284.205 325.896 283.736 326.344C283.266 326.771 283.032 327.304 283.032 327.944C283.032 328.669 283.32 329.245 283.896 329.672C284.472 330.099 285.272 330.312 286.296 330.312C287.277 330.312 288.152 330.088 288.92 329.64C289.709 329.192 290.274 328.531 290.616 327.656L291.288 330.056C290.904 331.059 290.21 331.837 289.208 332.392C288.226 332.947 286.978 333.224 285.464 333.224ZM307.62 333.224C305.828 333.224 304.228 332.851 302.82 332.104C301.434 331.336 300.346 330.291 299.556 328.968C298.767 327.645 298.372 326.141 298.372 324.456C298.372 322.749 298.767 321.245 299.556 319.944C300.346 318.621 301.434 317.587 302.82 316.84C304.228 316.093 305.828 315.72 307.62 315.72C309.284 315.72 310.746 316.061 312.004 316.744C313.284 317.405 314.255 318.387 314.916 319.688L311.844 321.48C311.332 320.669 310.703 320.072 309.956 319.688C309.231 319.304 308.442 319.112 307.588 319.112C306.607 319.112 305.722 319.325 304.932 319.752C304.143 320.179 303.524 320.797 303.076 321.608C302.628 322.397 302.404 323.347 302.404 324.456C302.404 325.565 302.628 326.525 303.076 327.336C303.524 328.125 304.143 328.733 304.932 329.16C305.722 329.587 306.607 329.8 307.588 329.8C308.442 329.8 309.231 329.608 309.956 329.224C310.703 328.84 311.332 328.243 311.844 327.432L314.916 329.224C314.255 330.504 313.284 331.496 312.004 332.2C310.746 332.883 309.284 333.224 307.62 333.224ZM318.374 333V315.912H322.182V320.616L321.734 319.24C322.246 318.088 323.046 317.213 324.134 316.616C325.243 316.019 326.619 315.72 328.262 315.72V319.528C328.091 319.485 327.931 319.464 327.782 319.464C327.633 319.443 327.483 319.432 327.334 319.432C325.819 319.432 324.614 319.88 323.718 320.776C322.822 321.651 322.374 322.963 322.374 324.712V333H318.374ZM339.179 333.224C337.43 333.224 335.872 332.851 334.507 332.104C333.142 331.336 332.064 330.291 331.275 328.968C330.486 327.645 330.091 326.141 330.091 324.456C330.091 322.749 330.486 321.245 331.275 319.944C332.064 318.621 333.142 317.587 334.507 316.84C335.872 316.093 337.43 315.72 339.179 315.72C340.95 315.72 342.518 316.093 343.883 316.84C345.27 317.587 346.347 318.611 347.115 319.912C347.904 321.213 348.299 322.728 348.299 324.456C348.299 326.141 347.904 327.645 347.115 328.968C346.347 330.291 345.27 331.336 343.883 332.104C342.518 332.851 340.95 333.224 339.179 333.224ZM339.179 329.8C340.16 329.8 341.035 329.587 341.803 329.16C342.571 328.733 343.168 328.115 343.595 327.304C344.043 326.493 344.267 325.544 344.267 324.456C344.267 323.347 344.043 322.397 343.595 321.608C343.168 320.797 342.571 320.179 341.803 319.752C341.035 319.325 340.171 319.112 339.211 319.112C338.23 319.112 337.355 319.325 336.587 319.752C335.84 320.179 335.243 320.797 334.795 321.608C334.347 322.397 334.123 323.347 334.123 324.456C334.123 325.544 334.347 326.493 334.795 327.304C335.243 328.115 335.84 328.733 336.587 329.16C337.355 329.587 338.219 329.8 339.179 329.8ZM357.404 333.224C355.975 333.224 354.599 333.043 353.276 332.68C351.975 332.296 350.94 331.837 350.172 331.304L351.708 328.264C352.476 328.755 353.393 329.16 354.46 329.48C355.527 329.8 356.593 329.96 357.66 329.96C358.919 329.96 359.825 329.789 360.38 329.448C360.956 329.107 361.244 328.648 361.244 328.072C361.244 327.603 361.052 327.251 360.668 327.016C360.284 326.76 359.783 326.568 359.164 326.44C358.545 326.312 357.852 326.195 357.084 326.088C356.337 325.981 355.58 325.843 354.812 325.672C354.065 325.48 353.383 325.213 352.764 324.872C352.145 324.509 351.644 324.029 351.26 323.432C350.876 322.835 350.684 322.045 350.684 321.064C350.684 319.976 350.993 319.037 351.612 318.248C352.231 317.437 353.095 316.819 354.204 316.392C355.335 315.944 356.668 315.72 358.204 315.72C359.356 315.72 360.519 315.848 361.692 316.104C362.865 316.36 363.836 316.723 364.604 317.192L363.068 320.232C362.257 319.741 361.436 319.411 360.604 319.24C359.793 319.048 358.983 318.952 358.172 318.952C356.956 318.952 356.049 319.133 355.452 319.496C354.876 319.859 354.588 320.317 354.588 320.872C354.588 321.384 354.78 321.768 355.164 322.024C355.548 322.28 356.049 322.483 356.668 322.632C357.287 322.781 357.969 322.909 358.716 323.016C359.484 323.101 360.241 323.24 360.988 323.432C361.735 323.624 362.417 323.891 363.036 324.232C363.676 324.552 364.188 325.011 364.572 325.608C364.956 326.205 365.148 326.984 365.148 327.944C365.148 329.011 364.828 329.939 364.188 330.728C363.569 331.517 362.684 332.136 361.532 332.584C360.38 333.011 359.004 333.224 357.404 333.224ZM383.869 333.224C381.991 333.224 380.541 332.744 379.516 331.784C378.493 330.803 377.981 329.363 377.981 327.464V312.136H381.981V327.368C381.981 328.179 382.183 328.808 382.589 329.256C383.015 329.704 383.602 329.928 384.349 329.928C385.245 329.928 385.991 329.693 386.589 329.224L387.709 332.072C387.239 332.456 386.663 332.744 385.981 332.936C385.298 333.128 384.594 333.224 383.869 333.224ZM375.165 319.24V316.04H386.557V319.24H375.165ZM398.117 333.224C396.367 333.224 394.81 332.851 393.445 332.104C392.079 331.336 391.002 330.291 390.213 328.968C389.423 327.645 389.029 326.141 389.029 324.456C389.029 322.749 389.423 321.245 390.213 319.944C391.002 318.621 392.079 317.587 393.445 316.84C394.81 316.093 396.367 315.72 398.117 315.72C399.887 315.72 401.455 316.093 402.821 316.84C404.207 317.587 405.285 318.611 406.053 319.912C406.842 321.213 407.237 322.728 407.237 324.456C407.237 326.141 406.842 327.645 406.053 328.968C405.285 330.291 404.207 331.336 402.821 332.104C401.455 332.851 399.887 333.224 398.117 333.224ZM398.117 329.8C399.098 329.8 399.973 329.587 400.741 329.16C401.509 328.733 402.106 328.115 402.533 327.304C402.981 326.493 403.205 325.544 403.205 324.456C403.205 323.347 402.981 322.397 402.533 321.608C402.106 320.797 401.509 320.179 400.741 319.752C399.973 319.325 399.109 319.112 398.149 319.112C397.167 319.112 396.293 319.325 395.525 319.752C394.778 320.179 394.181 320.797 393.733 321.608C393.285 322.397 393.061 323.347 393.061 324.456C393.061 325.544 393.285 326.493 393.733 327.304C394.181 328.115 394.778 328.733 395.525 329.16C396.293 329.587 397.157 329.8 398.117 329.8ZM427.137 333.224C425.687 333.224 424.407 332.957 423.297 332.424C422.188 331.869 421.324 331.037 420.705 329.928C420.087 328.797 419.777 327.379 419.777 325.672V315.912H423.777V325.128C423.777 326.664 424.119 327.816 424.801 328.584C425.505 329.331 426.497 329.704 427.777 329.704C428.716 329.704 429.527 329.512 430.209 329.128C430.913 328.744 431.457 328.168 431.841 327.4C432.247 326.632 432.449 325.683 432.449 324.552V315.912H436.449V333H432.641V328.392L433.313 329.8C432.737 330.909 431.895 331.763 430.785 332.36C429.676 332.936 428.46 333.224 427.137 333.224ZM446.967 333.224C445.537 333.224 444.161 333.043 442.839 332.68C441.537 332.296 440.503 331.837 439.735 331.304L441.271 328.264C442.039 328.755 442.956 329.16 444.023 329.48C445.089 329.8 446.156 329.96 447.223 329.96C448.481 329.96 449.388 329.789 449.943 329.448C450.519 329.107 450.807 328.648 450.807 328.072C450.807 327.603 450.615 327.251 450.231 327.016C449.847 326.76 449.345 326.568 448.727 326.44C448.108 326.312 447.415 326.195 446.647 326.088C445.9 325.981 445.143 325.843 444.375 325.672C443.628 325.48 442.945 325.213 442.327 324.872C441.708 324.509 441.207 324.029 440.823 323.432C440.439 322.835 440.247 322.045 440.247 321.064C440.247 319.976 440.556 319.037 441.174 318.248C441.793 317.437 442.657 316.819 443.766 316.392C444.897 315.944 446.231 315.72 447.767 315.72C448.919 315.72 450.081 315.848 451.255 316.104C452.428 316.36 453.399 316.723 454.167 317.192L452.631 320.232C451.82 319.741 450.999 319.411 450.167 319.24C449.356 319.048 448.545 318.952 447.735 318.952C446.519 318.952 445.612 319.133 445.015 319.496C444.439 319.859 444.151 320.317 444.151 320.872C444.151 321.384 444.343 321.768 444.727 322.024C445.111 322.28 445.612 322.483 446.231 322.632C446.849 322.781 447.532 322.909 448.279 323.016C449.047 323.101 449.804 323.24 450.551 323.432C451.297 323.624 451.98 323.891 452.599 324.232C453.239 324.552 453.751 325.011 454.135 325.608C454.519 326.205 454.711 326.984 454.711 327.944C454.711 329.011 454.391 329.939 453.751 330.728C453.132 331.517 452.247 332.136 451.095 332.584C449.943 333.011 448.567 333.224 446.967 333.224ZM466.187 333.224C464.289 333.224 462.625 332.851 461.195 332.104C459.787 331.336 458.689 330.291 457.899 328.968C457.131 327.645 456.747 326.141 456.747 324.456C456.747 322.749 457.121 321.245 457.867 319.944C458.635 318.621 459.681 317.587 461.003 316.84C462.347 316.093 463.873 315.72 465.579 315.72C467.243 315.72 468.726 316.083 470.027 316.808C471.329 317.533 472.353 318.557 473.099 319.88C473.846 321.203 474.219 322.76 474.219 324.552C474.219 324.723 474.209 324.915 474.187 325.128C474.187 325.341 474.177 325.544 474.155 325.736H459.915V323.08H472.043L470.475 323.912C470.497 322.931 470.294 322.067 469.867 321.32C469.441 320.573 468.854 319.987 468.107 319.56C467.382 319.133 466.539 318.92 465.579 318.92C464.598 318.92 463.734 319.133 462.987 319.56C462.262 319.987 461.686 320.584 461.259 321.352C460.854 322.099 460.651 322.984 460.651 324.008V324.648C460.651 325.672 460.886 326.579 461.355 327.368C461.825 328.157 462.486 328.765 463.339 329.192C464.193 329.619 465.174 329.832 466.283 329.832C467.243 329.832 468.107 329.683 468.875 329.384C469.643 329.085 470.326 328.616 470.923 327.976L473.067 330.44C472.299 331.336 471.329 332.029 470.155 332.52C469.003 332.989 467.681 333.224 466.187 333.224ZM490.681 333L484.409 315.912H488.185L493.561 330.984H491.769L497.401 315.912H500.761L506.233 330.984H504.473L510.009 315.912H513.561L507.257 333H503.417L498.425 319.656H499.609L494.521 333H490.681ZM516.312 333V315.912H520.312V333H516.312ZM518.328 313.096C517.581 313.096 516.962 312.861 516.472 312.392C516.002 311.923 515.768 311.357 515.768 310.696C515.768 310.013 516.002 309.448 516.472 309C516.962 308.531 517.581 308.296 518.328 308.296C519.074 308.296 519.682 308.52 520.152 308.968C520.642 309.395 520.888 309.939 520.888 310.6C520.888 311.304 520.653 311.901 520.184 312.392C519.714 312.861 519.096 313.096 518.328 313.096ZM531.994 333.224C530.116 333.224 528.666 332.744 527.641 331.784C526.618 330.803 526.106 329.363 526.106 327.464V312.136H530.106V327.368C530.106 328.179 530.308 328.808 530.714 329.256C531.14 329.704 531.727 329.928 532.474 329.928C533.37 329.928 534.116 329.693 534.714 329.224L535.834 332.072C535.364 332.456 534.788 332.744 534.106 332.936C533.423 333.128 532.719 333.224 531.994 333.224ZM523.29 319.24V316.04H534.682V319.24H523.29ZM548.82 315.72C550.185 315.72 551.401 315.987 552.468 316.52C553.556 317.053 554.409 317.875 555.028 318.984C555.647 320.072 555.956 321.48 555.956 323.208V333H551.956V323.72C551.956 322.205 551.593 321.075 550.868 320.328C550.164 319.581 549.172 319.208 547.892 319.208C546.953 319.208 546.121 319.4 545.396 319.784C544.671 320.168 544.105 320.744 543.7 321.512C543.316 322.259 543.124 323.208 543.124 324.36V333H539.124V309.256H543.124V320.52L542.26 319.112C542.857 318.024 543.721 317.192 544.852 316.616C546.004 316.019 547.327 315.72 548.82 315.72ZM140.152 372V368.544L139.928 367.808V361.76C139.928 360.587 139.576 359.68 138.872 359.04C138.168 358.379 137.101 358.048 135.672 358.048C134.712 358.048 133.763 358.197 132.824 358.496C131.907 358.795 131.128 359.211 130.488 359.744L128.92 356.832C129.837 356.128 130.925 355.605 132.184 355.264C133.464 354.901 134.787 354.72 136.152 354.72C138.627 354.72 140.536 355.317 141.88 356.512C143.245 357.685 143.928 359.509 143.928 361.984V372H140.152ZM134.776 372.224C133.496 372.224 132.376 372.011 131.416 371.584C130.456 371.136 129.709 370.528 129.176 369.76C128.664 368.971 128.408 368.085 128.408 367.104C128.408 366.144 128.632 365.28 129.08 364.512C129.549 363.744 130.307 363.136 131.352 362.688C132.397 362.24 133.784 362.016 135.512 362.016H140.472V364.672H135.8C134.435 364.672 133.517 364.896 133.048 365.344C132.579 365.771 132.344 366.304 132.344 366.944C132.344 367.669 132.632 368.245 133.208 368.672C133.784 369.099 134.584 369.312 135.608 369.312C136.589 369.312 137.464 369.088 138.232 368.64C139.021 368.192 139.587 367.531 139.928 366.656L140.6 369.056C140.216 370.059 139.523 370.837 138.52 371.392C137.539 371.947 136.291 372.224 134.776 372.224ZM158.758 354.72C160.123 354.72 161.339 354.987 162.406 355.52C163.494 356.053 164.347 356.875 164.966 357.984C165.584 359.072 165.894 360.48 165.894 362.208V372H161.894V362.72C161.894 361.205 161.531 360.075 160.806 359.328C160.102 358.581 159.11 358.208 157.83 358.208C156.891 358.208 156.059 358.4 155.334 358.784C154.608 359.168 154.043 359.744 153.638 360.512C153.254 361.259 153.062 362.208 153.062 363.36V372H149.062V354.912H152.87V359.52L152.198 358.112C152.795 357.024 153.659 356.192 154.79 355.616C155.942 355.019 157.264 354.72 158.758 354.72ZM172.063 378.432C171.231 378.432 170.399 378.293 169.567 378.016C168.735 377.739 168.042 377.355 167.487 376.864L169.087 373.92C169.493 374.283 169.951 374.571 170.463 374.784C170.975 374.997 171.498 375.104 172.031 375.104C172.757 375.104 173.343 374.923 173.791 374.56C174.239 374.197 174.655 373.589 175.039 372.736L176.031 370.496L176.351 370.016L182.815 354.912H186.655L178.655 373.376C178.122 374.656 177.525 375.669 176.863 376.416C176.223 377.163 175.498 377.685 174.687 377.984C173.898 378.283 173.023 378.432 172.063 378.432ZM175.583 372.608L167.871 354.912H172.031L178.303 369.664L175.583 372.608ZM201.263 368.192L201.359 363.168L210.287 354.912H215.087L207.503 362.528L205.391 364.288L201.263 368.192ZM197.999 372V348.256H201.999V372H197.999ZM210.895 372L204.655 364.288L207.183 361.088L215.759 372H210.895ZM225.687 372.224C223.789 372.224 222.125 371.851 220.695 371.104C219.287 370.336 218.189 369.291 217.399 367.968C216.631 366.645 216.247 365.141 216.247 363.456C216.247 361.749 216.621 360.245 217.367 358.944C218.135 357.621 219.181 356.587 220.503 355.84C221.847 355.093 223.373 354.72 225.079 354.72C226.743 354.72 228.226 355.083 229.527 355.808C230.829 356.533 231.853 357.557 232.599 358.88C233.346 360.203 233.719 361.76 233.719 363.552C233.719 363.723 233.709 363.915 233.687 364.128C233.687 364.341 233.677 364.544 233.655 364.736H219.415V362.08H231.543L229.975 362.912C229.997 361.931 229.794 361.067 229.367 360.32C228.941 359.573 228.354 358.987 227.607 358.56C226.882 358.133 226.039 357.92 225.079 357.92C224.098 357.92 223.234 358.133 222.487 358.56C221.762 358.987 221.186 359.584 220.759 360.352C220.354 361.099 220.151 361.984 220.151 363.008V363.648C220.151 364.672 220.386 365.579 220.855 366.368C221.325 367.157 221.986 367.765 222.839 368.192C223.693 368.619 224.674 368.832 225.783 368.832C226.743 368.832 227.607 368.683 228.375 368.384C229.143 368.085 229.826 367.616 230.423 366.976L232.567 369.44C231.799 370.336 230.829 371.029 229.655 371.52C228.503 371.989 227.181 372.224 225.687 372.224ZM238.657 378.432C237.825 378.432 236.993 378.293 236.161 378.016C235.329 377.739 234.636 377.355 234.081 376.864L235.681 373.92C236.086 374.283 236.545 374.571 237.057 374.784C237.569 374.997 238.092 375.104 238.625 375.104C239.35 375.104 239.937 374.923 240.385 374.56C240.833 374.197 241.249 373.589 241.633 372.736L242.625 370.496L242.945 370.016L249.409 354.912H253.249L245.249 373.376C244.716 374.656 244.118 375.669 243.457 376.416C242.817 377.163 242.092 377.685 241.281 377.984C240.492 378.283 239.617 378.432 238.657 378.432ZM242.177 372.608L234.465 354.912H238.625L244.897 369.664L242.177 372.608ZM265.221 372.224C263.77 372.224 262.48 371.904 261.349 371.264C260.218 370.624 259.322 369.664 258.661 368.384C258.021 367.083 257.701 365.44 257.701 363.456C257.701 361.451 258.032 359.808 258.693 358.528C259.376 357.248 260.282 356.299 261.413 355.68C262.565 355.04 263.834 354.72 265.221 354.72C266.906 354.72 268.389 355.083 269.669 355.808C270.97 356.533 271.994 357.547 272.741 358.848C273.509 360.149 273.893 361.685 273.893 363.456C273.893 365.227 273.509 366.763 272.741 368.064C271.994 369.365 270.97 370.389 269.669 371.136C268.389 371.861 266.906 372.224 265.221 372.224ZM255.749 372V348.256H259.749V358.88L259.429 363.424L259.557 367.968V372H255.749ZM264.773 368.8C265.733 368.8 266.586 368.587 267.333 368.16C268.101 367.733 268.709 367.115 269.157 366.304C269.605 365.493 269.829 364.544 269.829 363.456C269.829 362.347 269.605 361.397 269.157 360.608C268.709 359.797 268.101 359.179 267.333 358.752C266.586 358.325 265.733 358.112 264.773 358.112C263.813 358.112 262.949 358.325 262.181 358.752C261.413 359.179 260.805 359.797 260.357 360.608C259.909 361.397 259.685 362.347 259.685 363.456C259.685 364.544 259.909 365.493 260.357 366.304C260.805 367.115 261.413 367.733 262.181 368.16C262.949 368.587 263.813 368.8 264.773 368.8ZM285.367 372.224C283.617 372.224 282.06 371.851 280.695 371.104C279.329 370.336 278.252 369.291 277.463 367.968C276.673 366.645 276.279 365.141 276.279 363.456C276.279 361.749 276.673 360.245 277.463 358.944C278.252 357.621 279.329 356.587 280.695 355.84C282.06 355.093 283.617 354.72 285.367 354.72C287.137 354.72 288.705 355.093 290.071 355.84C291.457 356.587 292.535 357.611 293.303 358.912C294.092 360.213 294.487 361.728 294.487 363.456C294.487 365.141 294.092 366.645 293.303 367.968C292.535 369.291 291.457 370.336 290.071 371.104C288.705 371.851 287.137 372.224 285.367 372.224ZM285.367 368.8C286.348 368.8 287.223 368.587 287.991 368.16C288.759 367.733 289.356 367.115 289.783 366.304C290.231 365.493 290.455 364.544 290.455 363.456C290.455 362.347 290.231 361.397 289.783 360.608C289.356 359.797 288.759 359.179 287.991 358.752C287.223 358.325 286.359 358.112 285.399 358.112C284.417 358.112 283.543 358.325 282.775 358.752C282.028 359.179 281.431 359.797 280.983 360.608C280.535 361.397 280.311 362.347 280.311 363.456C280.311 364.544 280.535 365.493 280.983 366.304C281.431 367.115 282.028 367.733 282.775 368.16C283.543 368.587 284.407 368.8 285.367 368.8ZM308.621 372V368.544L308.397 367.808V361.76C308.397 360.587 308.045 359.68 307.341 359.04C306.637 358.379 305.57 358.048 304.141 358.048C303.181 358.048 302.231 358.197 301.293 358.496C300.375 358.795 299.597 359.211 298.957 359.744L297.389 356.832C298.306 356.128 299.394 355.605 300.653 355.264C301.933 354.901 303.255 354.72 304.621 354.72C307.095 354.72 309.005 355.317 310.349 356.512C311.714 357.685 312.397 359.509 312.397 361.984V372H308.621ZM303.245 372.224C301.965 372.224 300.845 372.011 299.885 371.584C298.925 371.136 298.178 370.528 297.645 369.76C297.133 368.971 296.877 368.085 296.877 367.104C296.877 366.144 297.101 365.28 297.549 364.512C298.018 363.744 298.775 363.136 299.821 362.688C300.866 362.24 302.253 362.016 303.981 362.016H308.941V364.672H304.269C302.903 364.672 301.986 364.896 301.517 365.344C301.047 365.771 300.813 366.304 300.813 366.944C300.813 367.669 301.101 368.245 301.677 368.672C302.253 369.099 303.053 369.312 304.077 369.312C305.058 369.312 305.933 369.088 306.701 368.64C307.49 368.192 308.055 367.531 308.397 366.656L309.069 369.056C308.685 370.059 307.991 370.837 306.989 371.392C306.007 371.947 304.759 372.224 303.245 372.224ZM317.53 372V354.912H321.338V359.616L320.89 358.24C321.402 357.088 322.202 356.213 323.29 355.616C324.4 355.019 325.776 354.72 327.418 354.72V358.528C327.248 358.485 327.088 358.464 326.938 358.464C326.789 358.443 326.64 358.432 326.49 358.432C324.976 358.432 323.77 358.88 322.874 359.776C321.978 360.651 321.53 361.963 321.53 363.712V372H317.53ZM337.887 372.224C336.245 372.224 334.762 371.861 333.439 371.136C332.138 370.389 331.114 369.365 330.367 368.064C329.621 366.763 329.247 365.227 329.247 363.456C329.247 361.685 329.621 360.149 330.367 358.848C331.114 357.547 332.138 356.533 333.439 355.808C334.762 355.083 336.245 354.72 337.887 354.72C339.317 354.72 340.597 355.04 341.727 355.68C342.858 356.299 343.754 357.248 344.415 358.528C345.077 359.808 345.407 361.451 345.407 363.456C345.407 365.44 345.087 367.083 344.447 368.384C343.807 369.664 342.922 370.624 341.791 371.264C340.661 371.904 339.359 372.224 337.887 372.224ZM338.367 368.8C339.327 368.8 340.181 368.587 340.927 368.16C341.695 367.733 342.303 367.115 342.751 366.304C343.221 365.493 343.455 364.544 343.455 363.456C343.455 362.347 343.221 361.397 342.751 360.608C342.303 359.797 341.695 359.179 340.927 358.752C340.181 358.325 339.327 358.112 338.367 358.112C337.407 358.112 336.543 358.325 335.775 358.752C335.029 359.179 334.421 359.797 333.951 360.608C333.503 361.397 333.279 362.347 333.279 363.456C333.279 364.544 333.503 365.493 333.951 366.304C334.421 367.115 335.029 367.733 335.775 368.16C336.543 368.587 337.407 368.8 338.367 368.8ZM343.551 372V367.968L343.711 363.424L343.391 358.88V348.256H347.359V372H343.551ZM371.996 372V368.544L371.772 367.808V361.76C371.772 360.587 371.42 359.68 370.716 359.04C370.012 358.379 368.945 358.048 367.516 358.048C366.556 358.048 365.606 358.197 364.668 358.496C363.75 358.795 362.972 359.211 362.332 359.744L360.764 356.832C361.681 356.128 362.769 355.605 364.028 355.264C365.308 354.901 366.63 354.72 367.996 354.72C370.47 354.72 372.38 355.317 373.724 356.512C375.089 357.685 375.772 359.509 375.772 361.984V372H371.996ZM366.62 372.224C365.34 372.224 364.22 372.011 363.26 371.584C362.3 371.136 361.553 370.528 361.02 369.76C360.508 368.971 360.252 368.085 360.252 367.104C360.252 366.144 360.476 365.28 360.924 364.512C361.393 363.744 362.15 363.136 363.196 362.688C364.241 362.24 365.628 362.016 367.356 362.016H372.316V364.672H367.644C366.278 364.672 365.361 364.896 364.892 365.344C364.422 365.771 364.188 366.304 364.188 366.944C364.188 367.669 364.476 368.245 365.052 368.672C365.628 369.099 366.428 369.312 367.452 369.312C368.433 369.312 369.308 369.088 370.076 368.64C370.865 368.192 371.43 367.531 371.772 366.656L372.444 369.056C372.06 370.059 371.366 370.837 370.364 371.392C369.382 371.947 368.134 372.224 366.62 372.224ZM390.601 354.72C391.967 354.72 393.183 354.987 394.249 355.52C395.337 356.053 396.191 356.875 396.809 357.984C397.428 359.072 397.737 360.48 397.737 362.208V372H393.737V362.72C393.737 361.205 393.375 360.075 392.649 359.328C391.945 358.581 390.953 358.208 389.673 358.208C388.735 358.208 387.903 358.4 387.177 358.784C386.452 359.168 385.887 359.744 385.481 360.512C385.097 361.259 384.905 362.208 384.905 363.36V372H380.905V354.912H384.713V359.52L384.041 358.112C384.639 357.024 385.503 356.192 386.633 355.616C387.785 355.019 389.108 354.72 390.601 354.72ZM410.075 372.224C408.432 372.224 406.949 371.861 405.627 371.136C404.325 370.389 403.301 369.365 402.555 368.064C401.808 366.763 401.435 365.227 401.435 363.456C401.435 361.685 401.808 360.149 402.555 358.848C403.301 357.547 404.325 356.533 405.627 355.808C406.949 355.083 408.432 354.72 410.075 354.72C411.504 354.72 412.784 355.04 413.915 355.68C415.045 356.299 415.941 357.248 416.603 358.528C417.264 359.808 417.595 361.451 417.595 363.456C417.595 365.44 417.275 367.083 416.635 368.384C415.995 369.664 415.109 370.624 413.979 371.264C412.848 371.904 411.547 372.224 410.075 372.224ZM410.555 368.8C411.515 368.8 412.368 368.587 413.115 368.16C413.883 367.733 414.491 367.115 414.939 366.304C415.408 365.493 415.643 364.544 415.643 363.456C415.643 362.347 415.408 361.397 414.939 360.608C414.491 359.797 413.883 359.179 413.115 358.752C412.368 358.325 411.515 358.112 410.555 358.112C409.595 358.112 408.731 358.325 407.963 358.752C407.216 359.179 406.608 359.797 406.139 360.608C405.691 361.397 405.467 362.347 405.467 363.456C405.467 364.544 405.691 365.493 406.139 366.304C406.608 367.115 407.216 367.733 407.963 368.16C408.731 368.587 409.595 368.8 410.555 368.8ZM415.739 372V367.968L415.899 363.424L415.579 358.88V348.256H419.547V372H415.739ZM444.183 372V368.544L443.959 367.808V361.76C443.959 360.587 443.607 359.68 442.903 359.04C442.199 358.379 441.133 358.048 439.703 358.048C438.743 358.048 437.794 358.197 436.855 358.496C435.938 358.795 435.159 359.211 434.519 359.744L432.951 356.832C433.869 356.128 434.957 355.605 436.215 355.264C437.495 354.901 438.818 354.72 440.183 354.72C442.658 354.72 444.567 355.317 445.911 356.512C447.277 357.685 447.959 359.509 447.959 361.984V372H444.183ZM438.807 372.224C437.527 372.224 436.407 372.011 435.447 371.584C434.487 371.136 433.741 370.528 433.207 369.76C432.695 368.971 432.439 368.085 432.439 367.104C432.439 366.144 432.663 365.28 433.111 364.512C433.581 363.744 434.338 363.136 435.383 362.688C436.429 362.24 437.815 362.016 439.543 362.016H444.503V364.672H439.831C438.466 364.672 437.549 364.896 437.079 365.344C436.61 365.771 436.375 366.304 436.375 366.944C436.375 367.669 436.663 368.245 437.239 368.672C437.815 369.099 438.615 369.312 439.639 369.312C440.621 369.312 441.495 369.088 442.263 368.64C443.053 368.192 443.618 367.531 443.959 366.656L444.631 369.056C444.247 370.059 443.554 370.837 442.551 371.392C441.57 371.947 440.322 372.224 438.807 372.224ZM462.789 354.72C464.154 354.72 465.37 354.987 466.437 355.52C467.525 356.053 468.378 356.875 468.997 357.984C469.615 359.072 469.925 360.48 469.925 362.208V372H465.925V362.72C465.925 361.205 465.562 360.075 464.837 359.328C464.133 358.581 463.141 358.208 461.861 358.208C460.922 358.208 460.09 358.4 459.365 358.784C458.639 359.168 458.074 359.744 457.669 360.512C457.285 361.259 457.093 362.208 457.093 363.36V372H453.093V354.912H456.901V359.52L456.229 358.112C456.826 357.024 457.69 356.192 458.821 355.616C459.973 355.019 461.295 354.72 462.789 354.72ZM476.095 378.432C475.263 378.432 474.431 378.293 473.599 378.016C472.767 377.739 472.073 377.355 471.518 376.864L473.118 373.92C473.524 374.283 473.983 374.571 474.495 374.784C475.007 374.997 475.529 375.104 476.062 375.104C476.788 375.104 477.375 374.923 477.823 374.56C478.271 374.197 478.687 373.589 479.071 372.736L480.062 370.496L480.383 370.016L486.847 354.912H490.687L482.687 373.376C482.153 374.656 481.556 375.669 480.895 376.416C480.255 377.163 479.529 377.685 478.719 377.984C477.929 378.283 477.055 378.432 476.095 378.432ZM479.615 372.608L471.902 354.912H476.062L482.335 369.664L479.615 372.608ZM523.598 354.72C524.964 354.72 526.169 354.987 527.214 355.52C528.281 356.053 529.113 356.875 529.71 357.984C530.308 359.072 530.606 360.48 530.606 362.208V372H526.606V362.72C526.606 361.205 526.276 360.075 525.614 359.328C524.953 358.581 524.004 358.208 522.766 358.208C521.892 358.208 521.113 358.4 520.43 358.784C519.769 359.168 519.246 359.733 518.862 360.48C518.5 361.227 518.318 362.176 518.318 363.328V372H514.318V362.72C514.318 361.205 513.988 360.075 513.326 359.328C512.665 358.581 511.716 358.208 510.478 358.208C509.604 358.208 508.825 358.4 508.142 358.784C507.481 359.168 506.958 359.733 506.574 360.48C506.212 361.227 506.03 362.176 506.03 363.328V372H502.03V354.912H505.838V359.456L505.166 358.112C505.742 357.003 506.574 356.16 507.662 355.584C508.772 355.008 510.03 354.72 511.438 354.72C513.038 354.72 514.425 355.115 515.598 355.904C516.793 356.693 517.582 357.888 517.966 359.488L516.398 358.944C516.953 357.664 517.87 356.64 519.15 355.872C520.43 355.104 521.913 354.72 523.598 354.72ZM543.429 372.224C541.68 372.224 540.122 371.851 538.757 371.104C537.392 370.336 536.314 369.291 535.525 367.968C534.736 366.645 534.341 365.141 534.341 363.456C534.341 361.749 534.736 360.245 535.525 358.944C536.314 357.621 537.392 356.587 538.757 355.84C540.122 355.093 541.68 354.72 543.429 354.72C545.2 354.72 546.768 355.093 548.133 355.84C549.52 356.587 550.597 357.611 551.365 358.912C552.154 360.213 552.549 361.728 552.549 363.456C552.549 365.141 552.154 366.645 551.365 367.968C550.597 369.291 549.52 370.336 548.133 371.104C546.768 371.851 545.2 372.224 543.429 372.224ZM543.429 368.8C544.41 368.8 545.285 368.587 546.053 368.16C546.821 367.733 547.418 367.115 547.845 366.304C548.293 365.493 548.517 364.544 548.517 363.456C548.517 362.347 548.293 361.397 547.845 360.608C547.418 359.797 546.821 359.179 546.053 358.752C545.285 358.325 544.421 358.112 543.461 358.112C542.48 358.112 541.605 358.325 540.837 358.752C540.09 359.179 539.493 359.797 539.045 360.608C538.597 361.397 538.373 362.347 538.373 363.456C538.373 364.544 538.597 365.493 539.045 366.304C539.493 367.115 540.09 367.733 540.837 368.16C541.605 368.587 542.469 368.8 543.429 368.8ZM563.606 372.224C562.155 372.224 560.875 371.957 559.766 371.424C558.657 370.869 557.793 370.037 557.174 368.928C556.555 367.797 556.246 366.379 556.246 364.672V354.912H560.246V364.128C560.246 365.664 560.587 366.816 561.27 367.584C561.974 368.331 562.966 368.704 564.246 368.704C565.185 368.704 565.995 368.512 566.678 368.128C567.382 367.744 567.926 367.168 568.31 366.4C568.715 365.632 568.918 364.683 568.918 363.552V354.912H572.918V372H569.11V367.392L569.782 368.8C569.206 369.909 568.363 370.763 567.254 371.36C566.145 371.936 564.929 372.224 563.606 372.224ZM583.435 372.224C582.006 372.224 580.63 372.043 579.307 371.68C578.006 371.296 576.971 370.837 576.203 370.304L577.739 367.264C578.507 367.755 579.425 368.16 580.491 368.48C581.558 368.8 582.625 368.96 583.691 368.96C584.95 368.96 585.857 368.789 586.411 368.448C586.987 368.107 587.275 367.648 587.275 367.072C587.275 366.603 587.083 366.251 586.699 366.016C586.315 365.76 585.814 365.568 585.195 365.44C584.577 365.312 583.883 365.195 583.115 365.088C582.369 364.981 581.611 364.843 580.843 364.672C580.097 364.48 579.414 364.213 578.795 363.872C578.177 363.509 577.675 363.029 577.291 362.432C576.907 361.835 576.715 361.045 576.715 360.064C576.715 358.976 577.025 358.037 577.643 357.248C578.262 356.437 579.126 355.819 580.235 355.392C581.366 354.944 582.699 354.72 584.235 354.72C585.387 354.72 586.55 354.848 587.723 355.104C588.897 355.36 589.867 355.723 590.635 356.192L589.099 359.232C588.289 358.741 587.467 358.411 586.635 358.24C585.825 358.048 585.014 357.952 584.203 357.952C582.987 357.952 582.081 358.133 581.483 358.496C580.907 358.859 580.619 359.317 580.619 359.872C580.619 360.384 580.811 360.768 581.195 361.024C581.579 361.28 582.081 361.483 582.699 361.632C583.318 361.781 584.001 361.909 584.747 362.016C585.515 362.101 586.273 362.24 587.019 362.432C587.766 362.624 588.449 362.891 589.067 363.232C589.707 363.552 590.219 364.011 590.603 364.608C590.987 365.205 591.179 365.984 591.179 366.944C591.179 368.011 590.859 368.939 590.219 369.728C589.601 370.517 588.715 371.136 587.563 371.584C586.411 372.011 585.035 372.224 583.435 372.224ZM602.656 372.224C600.757 372.224 599.093 371.851 597.664 371.104C596.256 370.336 595.157 369.291 594.368 367.968C593.6 366.645 593.216 365.141 593.216 363.456C593.216 361.749 593.589 360.245 594.336 358.944C595.104 357.621 596.149 356.587 597.472 355.84C598.816 355.093 600.341 354.72 602.048 354.72C603.712 354.72 605.195 355.083 606.496 355.808C607.797 356.533 608.821 357.557 609.568 358.88C610.315 360.203 610.688 361.76 610.688 363.552C610.688 363.723 610.677 363.915 610.656 364.128C610.656 364.341 610.645 364.544 610.624 364.736H596.384V362.08H608.512L606.944 362.912C606.965 361.931 606.763 361.067 606.336 360.32C605.909 359.573 605.323 358.987 604.576 358.56C603.851 358.133 603.008 357.92 602.048 357.92C601.067 357.92 600.203 358.133 599.456 358.56C598.731 358.987 598.155 359.584 597.728 360.352C597.323 361.099 597.12 361.984 597.12 363.008V363.648C597.12 364.672 597.355 365.579 597.824 366.368C598.293 367.157 598.955 367.765 599.808 368.192C600.661 368.619 601.643 368.832 602.752 368.832C603.712 368.832 604.576 368.683 605.344 368.384C606.112 368.085 606.795 367.616 607.392 366.976L609.536 369.44C608.768 370.336 607.797 371.029 606.624 371.52C605.472 371.989 604.149 372.224 602.656 372.224Z" fill="#F5F5F5"/>
<g filter="url(#filter0_d_303_9615)">
<rect x="761.5" y="38" width="486" height="75" rx="6" fill="white" shape-rendering="crispEdges"/>
<path d="M761.5 44C761.5 40.6863 764.186 38 767.5 38H836.5V113H767.5C764.186 113 761.5 110.314 761.5 107V44Z" fill="#FFECB8"/>
<circle cx="792.46" cy="63.8459" r="3.68701" fill="#997100"/>
<circle cx="792.462" cy="74.907" r="3.68701" fill="#997100"/>
<circle cx="792.46" cy="85.9679" r="3.68701" fill="#997100"/>
<circle cx="803.932" cy="63.8459" r="3.68701" fill="#997100"/>
<circle cx="803.932" cy="74.9071" r="3.68701" fill="#997100"/>
<circle cx="803.932" cy="85.9681" r="3.68701" fill="#997100"/>
<path d="M848.25 69.875L853.875 64.25M853.875 64.25L859.5 69.875M853.875 64.25V81.125M870.75 81.125L865.125 86.75M865.125 86.75L859.5 81.125M865.125 86.75V69.875" stroke="black" stroke-width="1.5" stroke-linecap="round" stroke-linejoin="round"/>
<path d="M905.188 79.468L902.284 69.22H900.388L897.484 79.468L893.5 66.964H890.86L896.452 83.5H898.54L901.324 73.468L904.156 83.5H906.244L911.836 66.964H909.196L905.188 79.468Z" fill="black"/>
<rect x="1075.5" y="55.5" width="40" height="40" rx="6" fill="#CED4DA"/>
<path d="M1100.24 73H1090.76C1090.71 72.9998 1090.67 73.0093 1090.63 73.0279C1090.59 73.0465 1090.55 73.0738 1090.52 73.108C1090.49 73.1422 1090.47 73.1826 1090.45 73.2265C1090.44 73.2705 1090.44 73.3171 1090.44 73.3633L1091.26 82.7873C1091.29 83.1187 1091.43 83.4269 1091.67 83.6513C1091.9 83.8756 1092.21 84 1092.53 84H1098.47C1098.79 84 1099.1 83.8756 1099.33 83.6513C1099.57 83.4269 1099.71 83.1187 1099.74 82.7873L1100.56 73.3633C1100.56 73.3172 1100.56 73.2708 1100.54 73.2269C1100.53 73.1831 1100.51 73.1428 1100.48 73.1087C1100.45 73.0745 1100.41 73.0471 1100.37 73.0284C1100.33 73.0097 1100.29 73 1100.24 73V73ZM1094.39 81.6667C1094.39 81.7993 1094.34 81.9265 1094.25 82.0202C1094.16 82.114 1094.04 82.1667 1093.91 82.1667C1093.78 82.1667 1093.66 82.114 1093.57 82.0202C1093.48 81.9265 1093.43 81.7993 1093.43 81.6667V75.6667C1093.43 75.5341 1093.48 75.4069 1093.57 75.3131C1093.66 75.2193 1093.78 75.1667 1093.91 75.1667C1094.04 75.1667 1094.16 75.2193 1094.25 75.3131C1094.34 75.4069 1094.39 75.5341 1094.39 75.6667V81.6667ZM1097.57 81.6667C1097.57 81.7993 1097.52 81.9265 1097.43 82.0202C1097.34 82.114 1097.22 82.1667 1097.09 82.1667C1096.97 82.1667 1096.84 82.114 1096.75 82.0202C1096.67 81.9265 1096.61 81.7993 1096.61 81.6667V75.6667C1096.61 75.5341 1096.67 75.4069 1096.75 75.3131C1096.84 75.2193 1096.97 75.1667 1097.09 75.1667C1097.22 75.1667 1097.34 75.2193 1097.43 75.3131C1097.52 75.4069 1097.57 75.5341 1097.57 75.6667V81.6667ZM1101.86 70.6667H1098.84C1098.8 70.6667 1098.76 70.6491 1098.73 70.6179C1098.7 70.5866 1098.68 70.5442 1098.68 70.5V69.6667C1098.68 69.2246 1098.51 68.8007 1098.22 68.4882C1097.92 68.1756 1097.51 68 1097.09 68H1093.91C1093.49 68 1093.08 68.1756 1092.78 68.4882C1092.49 68.8007 1092.32 69.2246 1092.32 69.6667V70.5C1092.32 70.5442 1092.3 70.5866 1092.27 70.6179C1092.24 70.6491 1092.2 70.6667 1092.16 70.6667H1089.14C1088.97 70.6667 1088.81 70.7369 1088.69 70.8619C1088.57 70.987 1088.5 71.1565 1088.5 71.3333C1088.5 71.5101 1088.57 71.6797 1088.69 71.8047C1088.81 71.9298 1088.97 72 1089.14 72H1101.86C1102.03 72 1102.19 71.9298 1102.31 71.8047C1102.43 71.6797 1102.5 71.5101 1102.5 71.3333C1102.5 71.1565 1102.43 70.987 1102.31 70.8619C1102.19 70.7369 1102.03 70.6667 1101.86 70.6667V70.6667ZM1093.59 70.5V69.6667C1093.59 69.5783 1093.62 69.4935 1093.68 69.431C1093.74 69.3685 1093.82 69.3333 1093.91 69.3333H1097.09C1097.18 69.3333 1097.26 69.3685 1097.32 69.431C1097.38 69.4935 1097.41 69.5783 1097.41 69.6667V70.5C1097.41 70.5442 1097.39 70.5866 1097.36 70.6179C1097.33 70.6491 1097.29 70.6667 1097.25 70.6667H1093.75C1093.71 70.6667 1093.67 70.6491 1093.64 70.6179C1093.61 70.5866 1093.59 70.5442 1093.59 70.5Z" fill="black"/>
<rect x="1123.5" y="55.5" width="108" height="40" rx="6" fill="url(#paint1_radial_303_9615)"/>
<path d="M1175.15 81.5V69.8636H1182.72V71.6307H1177.26V74.7898H1182.32V76.5568H1177.26V79.733H1182.76V81.5H1175.15ZM1188.01 81.6534C1187.33 81.6534 1186.71 81.4773 1186.17 81.125C1185.63 80.7727 1185.2 80.2614 1184.89 79.5909C1184.57 78.9205 1184.42 78.1061 1184.42 77.1477C1184.42 76.178 1184.58 75.3598 1184.89 74.6932C1185.22 74.0227 1185.65 73.517 1186.2 73.1761C1186.74 72.8314 1187.35 72.6591 1188.02 72.6591C1188.53 72.6591 1188.95 72.7462 1189.28 72.9205C1189.61 73.0909 1189.87 73.2973 1190.07 73.5398C1190.26 73.7784 1190.41 74.0038 1190.51 74.2159H1190.6V69.8636H1192.66V81.5H1190.64V80.125H1190.51C1190.41 80.3371 1190.25 80.5625 1190.05 80.8011C1189.85 81.036 1189.59 81.2367 1189.26 81.4034C1188.93 81.5701 1188.51 81.6534 1188.01 81.6534ZM1188.59 79.9659C1189.02 79.9659 1189.39 79.8485 1189.7 79.6136C1190.01 79.375 1190.24 79.0436 1190.4 78.6193C1190.56 78.1951 1190.64 77.7008 1190.64 77.1364C1190.64 76.572 1190.56 76.0814 1190.4 75.6648C1190.25 75.2481 1190.01 74.9242 1189.71 74.6932C1189.4 74.4621 1189.03 74.3466 1188.59 74.3466C1188.13 74.3466 1187.75 74.4659 1187.44 74.7045C1187.13 74.9432 1186.9 75.2727 1186.75 75.6932C1186.59 76.1136 1186.51 76.5947 1186.51 77.1364C1186.51 77.6818 1186.59 78.1686 1186.75 78.5966C1186.91 79.0208 1187.14 79.3561 1187.45 79.6023C1187.76 79.8447 1188.14 79.9659 1188.59 79.9659ZM1194.85 81.5V72.7727H1196.91V81.5H1194.85ZM1195.89 71.5341C1195.56 71.5341 1195.28 71.4261 1195.05 71.2102C1194.81 70.9905 1194.69 70.7273 1194.69 70.4205C1194.69 70.1098 1194.81 69.8466 1195.05 69.6307C1195.28 69.411 1195.56 69.3011 1195.89 69.3011C1196.22 69.3011 1196.5 69.411 1196.73 69.6307C1196.96 69.8466 1197.08 70.1098 1197.08 70.4205C1197.08 70.7273 1196.96 70.9905 1196.73 71.2102C1196.5 71.4261 1196.22 71.5341 1195.89 71.5341ZM1203.38 72.7727V74.3636H1198.37V72.7727H1203.38ZM1199.61 70.6818H1201.66V78.875C1201.66 79.1515 1201.7 79.3636 1201.79 79.5114C1201.87 79.6553 1201.99 79.7538 1202.13 79.8068C1202.27 79.8598 1202.42 79.8864 1202.59 79.8864C1202.72 79.8864 1202.84 79.8769 1202.95 79.858C1203.06 79.839 1203.14 79.822 1203.2 79.8068L1203.54 81.4148C1203.43 81.4527 1203.28 81.4943 1203.07 81.5398C1202.87 81.5852 1202.62 81.6117 1202.33 81.6193C1201.82 81.6345 1201.35 81.5568 1200.94 81.3864C1200.53 81.2121 1200.2 80.9432 1199.96 80.5795C1199.72 80.2159 1199.6 79.7614 1199.61 79.2159V70.6818Z" fill="black"/>
<path d="M1156.71 69.6996H1151.1C1150.68 69.6996 1150.27 69.8684 1149.97 70.1689C1149.67 70.4694 1149.5 70.877 1149.5 71.302V82.5189C1149.5 82.9439 1149.67 83.3515 1149.97 83.652C1150.27 83.9525 1150.68 84.1213 1151.1 84.1213H1162.32C1162.74 84.1213 1163.15 83.9525 1163.45 83.652C1163.75 83.3515 1163.92 82.9439 1163.92 82.5189V76.9104" stroke="black" stroke-width="2" stroke-linecap="round"/>
<path d="M1162.72 68.4978C1163.04 68.1791 1163.47 68 1163.92 68C1164.37 68 1164.81 68.1791 1165.12 68.4978C1165.44 68.8165 1165.62 69.2488 1165.62 69.6996C1165.62 70.1504 1165.44 70.5827 1165.12 70.9014L1157.51 78.5129L1154.31 79.3141L1155.11 76.1093L1162.72 68.4978Z" stroke="black" stroke-width="2" stroke-linecap="round"/>
</g>
<g filter="url(#filter1_d_303_9615)">
<rect x="761.5" y="125" width="486" height="75" rx="6" fill="white" shape-rendering="crispEdges"/>
<path d="M761.5 131C761.5 127.686 764.186 125 767.5 125H836.5V200H767.5C764.186 200 761.5 197.314 761.5 194V131Z" fill="#FFECB8"/>
<circle cx="792.46" cy="150.846" r="3.68701" fill="#997100"/>
<circle cx="792.462" cy="161.907" r="3.68701" fill="#997100"/>
<circle cx="792.46" cy="172.968" r="3.68701" fill="#997100"/>
<circle cx="803.932" cy="150.846" r="3.68701" fill="#997100"/>
<circle cx="803.932" cy="161.907" r="3.68701" fill="#997100"/>
<circle cx="803.932" cy="172.968" r="3.68701" fill="#997100"/>
<path d="M848.25 156.875L853.875 151.25M853.875 151.25L859.5 156.875M853.875 151.25V168.125M870.75 168.125L865.125 173.75M865.125 173.75L859.5 168.125M865.125 173.75V156.875" stroke="black" stroke-width="1.5" stroke-linecap="round" stroke-linejoin="round"/>
<path d="M899.98 170.788C904.708 170.788 908.38 166.948 908.38 162.268C908.38 157.564 904.708 153.676 899.98 153.676C895.276 153.676 891.628 157.564 891.628 162.268C891.628 166.948 895.276 170.788 899.98 170.788ZM899.98 168.484C896.62 168.484 894.1 165.652 894.1 162.268C894.1 158.86 896.62 155.98 899.98 155.98C903.364 155.98 905.908 158.86 905.908 162.268C905.908 165.652 903.364 168.484 899.98 168.484Z" fill="black"/>
<rect x="1075.5" y="142.5" width="40" height="40" rx="6" fill="#CED4DA"/>
<path d="M1100.24 160H1090.76C1090.71 160 1090.67 160.009 1090.63 160.028C1090.59 160.047 1090.55 160.074 1090.52 160.108C1090.49 160.142 1090.47 160.183 1090.45 160.227C1090.44 160.271 1090.44 160.317 1090.44 160.363L1091.26 169.787C1091.29 170.119 1091.43 170.427 1091.67 170.651C1091.9 170.876 1092.21 171 1092.53 171H1098.47C1098.79 171 1099.1 170.876 1099.33 170.651C1099.57 170.427 1099.71 170.119 1099.74 169.787L1100.56 160.363C1100.56 160.317 1100.56 160.271 1100.54 160.227C1100.53 160.183 1100.51 160.143 1100.48 160.109C1100.45 160.074 1100.41 160.047 1100.37 160.028C1100.33 160.01 1100.29 160 1100.24 160V160ZM1094.39 168.667C1094.39 168.799 1094.34 168.926 1094.25 169.02C1094.16 169.114 1094.04 169.167 1093.91 169.167C1093.78 169.167 1093.66 169.114 1093.57 169.02C1093.48 168.926 1093.43 168.799 1093.43 168.667V162.667C1093.43 162.534 1093.48 162.407 1093.57 162.313C1093.66 162.219 1093.78 162.167 1093.91 162.167C1094.04 162.167 1094.16 162.219 1094.25 162.313C1094.34 162.407 1094.39 162.534 1094.39 162.667V168.667ZM1097.57 168.667C1097.57 168.799 1097.52 168.926 1097.43 169.02C1097.34 169.114 1097.22 169.167 1097.09 169.167C1096.97 169.167 1096.84 169.114 1096.75 169.02C1096.67 168.926 1096.61 168.799 1096.61 168.667V162.667C1096.61 162.534 1096.67 162.407 1096.75 162.313C1096.84 162.219 1096.97 162.167 1097.09 162.167C1097.22 162.167 1097.34 162.219 1097.43 162.313C1097.52 162.407 1097.57 162.534 1097.57 162.667V168.667ZM1101.86 157.667H1098.84C1098.8 157.667 1098.76 157.649 1098.73 157.618C1098.7 157.587 1098.68 157.544 1098.68 157.5V156.667C1098.68 156.225 1098.51 155.801 1098.22 155.488C1097.92 155.176 1097.51 155 1097.09 155H1093.91C1093.49 155 1093.08 155.176 1092.78 155.488C1092.49 155.801 1092.32 156.225 1092.32 156.667V157.5C1092.32 157.544 1092.3 157.587 1092.27 157.618C1092.24 157.649 1092.2 157.667 1092.16 157.667H1089.14C1088.97 157.667 1088.81 157.737 1088.69 157.862C1088.57 157.987 1088.5 158.157 1088.5 158.333C1088.5 158.51 1088.57 158.68 1088.69 158.805C1088.81 158.93 1088.97 159 1089.14 159H1101.86C1102.03 159 1102.19 158.93 1102.31 158.805C1102.43 158.68 1102.5 158.51 1102.5 158.333C1102.5 158.157 1102.43 157.987 1102.31 157.862C1102.19 157.737 1102.03 157.667 1101.86 157.667V157.667ZM1093.59 157.5V156.667C1093.59 156.578 1093.62 156.493 1093.68 156.431C1093.74 156.368 1093.82 156.333 1093.91 156.333H1097.09C1097.18 156.333 1097.26 156.368 1097.32 156.431C1097.38 156.493 1097.41 156.578 1097.41 156.667V157.5C1097.41 157.544 1097.39 157.587 1097.36 157.618C1097.33 157.649 1097.29 157.667 1097.25 157.667H1093.75C1093.71 157.667 1093.67 157.649 1093.64 157.618C1093.61 157.587 1093.59 157.544 1093.59 157.5Z" fill="black"/>
<rect x="1123.5" y="142.5" width="108" height="40" rx="6" fill="url(#paint2_radial_303_9615)"/>
<path d="M1175.15 168.5V156.864H1182.72V158.631H1177.26V161.79H1182.32V163.557H1177.26V166.733H1182.76V168.5H1175.15ZM1188.01 168.653C1187.33 168.653 1186.71 168.477 1186.17 168.125C1185.63 167.773 1185.2 167.261 1184.89 166.591C1184.57 165.92 1184.42 165.106 1184.42 164.148C1184.42 163.178 1184.58 162.36 1184.89 161.693C1185.22 161.023 1185.65 160.517 1186.2 160.176C1186.74 159.831 1187.35 159.659 1188.02 159.659C1188.53 159.659 1188.95 159.746 1189.28 159.92C1189.61 160.091 1189.87 160.297 1190.07 160.54C1190.26 160.778 1190.41 161.004 1190.51 161.216H1190.6V156.864H1192.66V168.5H1190.64V167.125H1190.51C1190.41 167.337 1190.25 167.562 1190.05 167.801C1189.85 168.036 1189.59 168.237 1189.26 168.403C1188.93 168.57 1188.51 168.653 1188.01 168.653ZM1188.59 166.966C1189.02 166.966 1189.39 166.848 1189.7 166.614C1190.01 166.375 1190.24 166.044 1190.4 165.619C1190.56 165.195 1190.64 164.701 1190.64 164.136C1190.64 163.572 1190.56 163.081 1190.4 162.665C1190.25 162.248 1190.01 161.924 1189.71 161.693C1189.4 161.462 1189.03 161.347 1188.59 161.347C1188.13 161.347 1187.75 161.466 1187.44 161.705C1187.13 161.943 1186.9 162.273 1186.75 162.693C1186.59 163.114 1186.51 163.595 1186.51 164.136C1186.51 164.682 1186.59 165.169 1186.75 165.597C1186.91 166.021 1187.14 166.356 1187.45 166.602C1187.76 166.845 1188.14 166.966 1188.59 166.966ZM1194.85 168.5V159.773H1196.91V168.5H1194.85ZM1195.89 158.534C1195.56 158.534 1195.28 158.426 1195.05 158.21C1194.81 157.991 1194.69 157.727 1194.69 157.42C1194.69 157.11 1194.81 156.847 1195.05 156.631C1195.28 156.411 1195.56 156.301 1195.89 156.301C1196.22 156.301 1196.5 156.411 1196.73 156.631C1196.96 156.847 1197.08 157.11 1197.08 157.42C1197.08 157.727 1196.96 157.991 1196.73 158.21C1196.5 158.426 1196.22 158.534 1195.89 158.534ZM1203.38 159.773V161.364H1198.37V159.773H1203.38ZM1199.61 157.682H1201.66V165.875C1201.66 166.152 1201.7 166.364 1201.79 166.511C1201.87 166.655 1201.99 166.754 1202.13 166.807C1202.27 166.86 1202.42 166.886 1202.59 166.886C1202.72 166.886 1202.84 166.877 1202.95 166.858C1203.06 166.839 1203.14 166.822 1203.2 166.807L1203.54 168.415C1203.43 168.453 1203.28 168.494 1203.07 168.54C1202.87 168.585 1202.62 168.612 1202.33 168.619C1201.82 168.634 1201.35 168.557 1200.94 168.386C1200.53 168.212 1200.2 167.943 1199.96 167.58C1199.72 167.216 1199.6 166.761 1199.61 166.216V157.682Z" fill="black"/>
<path d="M1156.71 156.7H1151.1C1150.68 156.7 1150.27 156.868 1149.97 157.169C1149.67 157.469 1149.5 157.877 1149.5 158.302V169.519C1149.5 169.944 1149.67 170.351 1149.97 170.652C1150.27 170.952 1150.68 171.121 1151.1 171.121H1162.32C1162.74 171.121 1163.15 170.952 1163.45 170.652C1163.75 170.351 1163.92 169.944 1163.92 169.519V163.91" stroke="black" stroke-width="2" stroke-linecap="round"/>
<path d="M1162.72 155.498C1163.04 155.179 1163.47 155 1163.92 155C1164.37 155 1164.81 155.179 1165.12 155.498C1165.44 155.817 1165.62 156.249 1165.62 156.7C1165.62 157.15 1165.44 157.583 1165.12 157.901L1157.51 165.513L1154.31 166.314L1155.11 163.109L1162.72 155.498Z" stroke="black" stroke-width="2" stroke-linecap="round"/>
</g>
<g filter="url(#filter2_d_303_9615)">
<rect x="761.5" y="212" width="486" height="75" rx="6" fill="white" shape-rendering="crispEdges"/>
<path d="M761.5 218C761.5 214.686 764.186 212 767.5 212H836.5V287H767.5C764.186 287 761.5 284.314 761.5 281V218Z" fill="#FFECB8"/>
<circle cx="792.46" cy="237.846" r="3.68701" fill="#997100"/>
<circle cx="792.462" cy="248.907" r="3.68701" fill="#997100"/>
<circle cx="792.46" cy="259.968" r="3.68701" fill="#997100"/>
<circle cx="803.932" cy="237.846" r="3.68701" fill="#997100"/>
<circle cx="803.932" cy="248.907" r="3.68701" fill="#997100"/>
<circle cx="803.932" cy="259.968" r="3.68701" fill="#997100"/>
<path d="M848.25 243.875L853.875 238.25M853.875 238.25L859.5 243.875M853.875 238.25V255.125M870.75 255.125L865.125 260.75M865.125 260.75L859.5 255.125M865.125 260.75V243.875" stroke="black" stroke-width="1.5" stroke-linecap="round" stroke-linejoin="round"/>
<path d="M899.98 257.788C904.708 257.788 908.38 253.948 908.38 249.268C908.38 244.564 904.708 240.676 899.98 240.676C895.276 240.676 891.628 244.564 891.628 249.268C891.628 253.948 895.276 257.788 899.98 257.788ZM899.98 255.484C896.62 255.484 894.1 252.652 894.1 249.268C894.1 245.86 896.62 242.98 899.98 242.98C903.364 242.98 905.908 245.86 905.908 249.268C905.908 252.652 903.364 255.484 899.98 255.484Z" fill="black"/>
<rect x="1075.5" y="229.5" width="40" height="40" rx="6" fill="#CED4DA"/>
<path d="M1100.24 247H1090.76C1090.71 247 1090.67 247.009 1090.63 247.028C1090.59 247.047 1090.55 247.074 1090.52 247.108C1090.49 247.142 1090.47 247.183 1090.45 247.227C1090.44 247.271 1090.44 247.317 1090.44 247.363L1091.26 256.787C1091.29 257.119 1091.43 257.427 1091.67 257.651C1091.9 257.876 1092.21 258 1092.53 258H1098.47C1098.79 258 1099.1 257.876 1099.33 257.651C1099.57 257.427 1099.71 257.119 1099.74 256.787L1100.56 247.363C1100.56 247.317 1100.56 247.271 1100.54 247.227C1100.53 247.183 1100.51 247.143 1100.48 247.109C1100.45 247.074 1100.41 247.047 1100.37 247.028C1100.33 247.01 1100.29 247 1100.24 247V247ZM1094.39 255.667C1094.39 255.799 1094.34 255.926 1094.25 256.02C1094.16 256.114 1094.04 256.167 1093.91 256.167C1093.78 256.167 1093.66 256.114 1093.57 256.02C1093.48 255.926 1093.43 255.799 1093.43 255.667V249.667C1093.43 249.534 1093.48 249.407 1093.57 249.313C1093.66 249.219 1093.78 249.167 1093.91 249.167C1094.04 249.167 1094.16 249.219 1094.25 249.313C1094.34 249.407 1094.39 249.534 1094.39 249.667V255.667ZM1097.57 255.667C1097.57 255.799 1097.52 255.926 1097.43 256.02C1097.34 256.114 1097.22 256.167 1097.09 256.167C1096.97 256.167 1096.84 256.114 1096.75 256.02C1096.67 255.926 1096.61 255.799 1096.61 255.667V249.667C1096.61 249.534 1096.67 249.407 1096.75 249.313C1096.84 249.219 1096.97 249.167 1097.09 249.167C1097.22 249.167 1097.34 249.219 1097.43 249.313C1097.52 249.407 1097.57 249.534 1097.57 249.667V255.667ZM1101.86 244.667H1098.84C1098.8 244.667 1098.76 244.649 1098.73 244.618C1098.7 244.587 1098.68 244.544 1098.68 244.5V243.667C1098.68 243.225 1098.51 242.801 1098.22 242.488C1097.92 242.176 1097.51 242 1097.09 242H1093.91C1093.49 242 1093.08 242.176 1092.78 242.488C1092.49 242.801 1092.32 243.225 1092.32 243.667V244.5C1092.32 244.544 1092.3 244.587 1092.27 244.618C1092.24 244.649 1092.2 244.667 1092.16 244.667H1089.14C1088.97 244.667 1088.81 244.737 1088.69 244.862C1088.57 244.987 1088.5 245.157 1088.5 245.333C1088.5 245.51 1088.57 245.68 1088.69 245.805C1088.81 245.93 1088.97 246 1089.14 246H1101.86C1102.03 246 1102.19 245.93 1102.31 245.805C1102.43 245.68 1102.5 245.51 1102.5 245.333C1102.5 245.157 1102.43 244.987 1102.31 244.862C1102.19 244.737 1102.03 244.667 1101.86 244.667V244.667ZM1093.59 244.5V243.667C1093.59 243.578 1093.62 243.493 1093.68 243.431C1093.74 243.368 1093.82 243.333 1093.91 243.333H1097.09C1097.18 243.333 1097.26 243.368 1097.32 243.431C1097.38 243.493 1097.41 243.578 1097.41 243.667V244.5C1097.41 244.544 1097.39 244.587 1097.36 244.618C1097.33 244.649 1097.29 244.667 1097.25 244.667H1093.75C1093.71 244.667 1093.67 244.649 1093.64 244.618C1093.61 244.587 1093.59 244.544 1093.59 244.5Z" fill="black"/>
<rect x="1123.5" y="229.5" width="108" height="40" rx="6" fill="url(#paint3_radial_303_9615)"/>
<path d="M1175.15 255.5V243.864H1182.72V245.631H1177.26V248.79H1182.32V250.557H1177.26V253.733H1182.76V255.5H1175.15ZM1188.01 255.653C1187.33 255.653 1186.71 255.477 1186.17 255.125C1185.63 254.773 1185.2 254.261 1184.89 253.591C1184.57 252.92 1184.42 252.106 1184.42 251.148C1184.42 250.178 1184.58 249.36 1184.89 248.693C1185.22 248.023 1185.65 247.517 1186.2 247.176C1186.74 246.831 1187.35 246.659 1188.02 246.659C1188.53 246.659 1188.95 246.746 1189.28 246.92C1189.61 247.091 1189.87 247.297 1190.07 247.54C1190.26 247.778 1190.41 248.004 1190.51 248.216H1190.6V243.864H1192.66V255.5H1190.64V254.125H1190.51C1190.41 254.337 1190.25 254.562 1190.05 254.801C1189.85 255.036 1189.59 255.237 1189.26 255.403C1188.93 255.57 1188.51 255.653 1188.01 255.653ZM1188.59 253.966C1189.02 253.966 1189.39 253.848 1189.7 253.614C1190.01 253.375 1190.24 253.044 1190.4 252.619C1190.56 252.195 1190.64 251.701 1190.64 251.136C1190.64 250.572 1190.56 250.081 1190.4 249.665C1190.25 249.248 1190.01 248.924 1189.71 248.693C1189.4 248.462 1189.03 248.347 1188.59 248.347C1188.13 248.347 1187.75 248.466 1187.44 248.705C1187.13 248.943 1186.9 249.273 1186.75 249.693C1186.59 250.114 1186.51 250.595 1186.51 251.136C1186.51 251.682 1186.59 252.169 1186.75 252.597C1186.91 253.021 1187.14 253.356 1187.45 253.602C1187.76 253.845 1188.14 253.966 1188.59 253.966ZM1194.85 255.5V246.773H1196.91V255.5H1194.85ZM1195.89 245.534C1195.56 245.534 1195.28 245.426 1195.05 245.21C1194.81 244.991 1194.69 244.727 1194.69 244.42C1194.69 244.11 1194.81 243.847 1195.05 243.631C1195.28 243.411 1195.56 243.301 1195.89 243.301C1196.22 243.301 1196.5 243.411 1196.73 243.631C1196.96 243.847 1197.08 244.11 1197.08 244.42C1197.08 244.727 1196.96 244.991 1196.73 245.21C1196.5 245.426 1196.22 245.534 1195.89 245.534ZM1203.38 246.773V248.364H1198.37V246.773H1203.38ZM1199.61 244.682H1201.66V252.875C1201.66 253.152 1201.7 253.364 1201.79 253.511C1201.87 253.655 1201.99 253.754 1202.13 253.807C1202.27 253.86 1202.42 253.886 1202.59 253.886C1202.72 253.886 1202.84 253.877 1202.95 253.858C1203.06 253.839 1203.14 253.822 1203.2 253.807L1203.54 255.415C1203.43 255.453 1203.28 255.494 1203.07 255.54C1202.87 255.585 1202.62 255.612 1202.33 255.619C1201.82 255.634 1201.35 255.557 1200.94 255.386C1200.53 255.212 1200.2 254.943 1199.96 254.58C1199.72 254.216 1199.6 253.761 1199.61 253.216V244.682Z" fill="black"/>
<path d="M1156.71 243.7H1151.1C1150.68 243.7 1150.27 243.868 1149.97 244.169C1149.67 244.469 1149.5 244.877 1149.5 245.302V256.519C1149.5 256.944 1149.67 257.351 1149.97 257.652C1150.27 257.952 1150.68 258.121 1151.1 258.121H1162.32C1162.74 258.121 1163.15 257.952 1163.45 257.652C1163.75 257.351 1163.92 256.944 1163.92 256.519V250.91" stroke="black" stroke-width="2" stroke-linecap="round"/>
<path d="M1162.72 242.498C1163.04 242.179 1163.47 242 1163.92 242C1164.37 242 1164.81 242.179 1165.12 242.498C1165.44 242.817 1165.62 243.249 1165.62 243.7C1165.62 244.15 1165.44 244.583 1165.12 244.901L1157.51 252.513L1154.31 253.314L1155.11 250.109L1162.72 242.498Z" stroke="black" stroke-width="2" stroke-linecap="round"/>
</g>
<g filter="url(#filter3_d_303_9615)">
<rect x="761.5" y="299" width="486" height="75" rx="6" fill="white" shape-rendering="crispEdges"/>
<path d="M761.5 305C761.5 301.686 764.186 299 767.5 299H836.5V374H767.5C764.186 374 761.5 371.314 761.5 368V305Z" fill="#FFECB8"/>
<circle cx="792.46" cy="324.846" r="3.68701" fill="#997100"/>
<circle cx="792.462" cy="335.907" r="3.68701" fill="#997100"/>
<circle cx="792.46" cy="346.968" r="3.68701" fill="#997100"/>
<circle cx="803.932" cy="324.846" r="3.68701" fill="#997100"/>
<circle cx="803.932" cy="335.907" r="3.68701" fill="#997100"/>
<circle cx="803.932" cy="346.968" r="3.68701" fill="#997100"/>
<path d="M848.25 330.875L853.875 325.25M853.875 325.25L859.5 330.875M853.875 325.25V342.125M870.75 342.125L865.125 347.75M865.125 347.75L859.5 342.125M865.125 347.75V330.875" stroke="black" stroke-width="1.5" stroke-linecap="round" stroke-linejoin="round"/>
<path d="M890.98 327.964V330.22H895.9V344.5H898.372V330.22H903.292V327.964H890.98Z" fill="black"/>
<rect x="1075.5" y="316.5" width="40" height="40" rx="6" fill="#CED4DA"/>
<path d="M1100.24 334H1090.76C1090.71 334 1090.67 334.009 1090.63 334.028C1090.59 334.047 1090.55 334.074 1090.52 334.108C1090.49 334.142 1090.47 334.183 1090.45 334.227C1090.44 334.271 1090.44 334.317 1090.44 334.363L1091.26 343.787C1091.29 344.119 1091.43 344.427 1091.67 344.651C1091.9 344.876 1092.21 345 1092.53 345H1098.47C1098.79 345 1099.1 344.876 1099.33 344.651C1099.57 344.427 1099.71 344.119 1099.74 343.787L1100.56 334.363C1100.56 334.317 1100.56 334.271 1100.54 334.227C1100.53 334.183 1100.51 334.143 1100.48 334.109C1100.45 334.074 1100.41 334.047 1100.37 334.028C1100.33 334.01 1100.29 334 1100.24 334V334ZM1094.39 342.667C1094.39 342.799 1094.34 342.926 1094.25 343.02C1094.16 343.114 1094.04 343.167 1093.91 343.167C1093.78 343.167 1093.66 343.114 1093.57 343.02C1093.48 342.926 1093.43 342.799 1093.43 342.667V336.667C1093.43 336.534 1093.48 336.407 1093.57 336.313C1093.66 336.219 1093.78 336.167 1093.91 336.167C1094.04 336.167 1094.16 336.219 1094.25 336.313C1094.34 336.407 1094.39 336.534 1094.39 336.667V342.667ZM1097.57 342.667C1097.57 342.799 1097.52 342.926 1097.43 343.02C1097.34 343.114 1097.22 343.167 1097.09 343.167C1096.97 343.167 1096.84 343.114 1096.75 343.02C1096.67 342.926 1096.61 342.799 1096.61 342.667V336.667C1096.61 336.534 1096.67 336.407 1096.75 336.313C1096.84 336.219 1096.97 336.167 1097.09 336.167C1097.22 336.167 1097.34 336.219 1097.43 336.313C1097.52 336.407 1097.57 336.534 1097.57 336.667V342.667ZM1101.86 331.667H1098.84C1098.8 331.667 1098.76 331.649 1098.73 331.618C1098.7 331.587 1098.68 331.544 1098.68 331.5V330.667C1098.68 330.225 1098.51 329.801 1098.22 329.488C1097.92 329.176 1097.51 329 1097.09 329H1093.91C1093.49 329 1093.08 329.176 1092.78 329.488C1092.49 329.801 1092.32 330.225 1092.32 330.667V331.5C1092.32 331.544 1092.3 331.587 1092.27 331.618C1092.24 331.649 1092.2 331.667 1092.16 331.667H1089.14C1088.97 331.667 1088.81 331.737 1088.69 331.862C1088.57 331.987 1088.5 332.157 1088.5 332.333C1088.5 332.51 1088.57 332.68 1088.69 332.805C1088.81 332.93 1088.97 333 1089.14 333H1101.86C1102.03 333 1102.19 332.93 1102.31 332.805C1102.43 332.68 1102.5 332.51 1102.5 332.333C1102.5 332.157 1102.43 331.987 1102.31 331.862C1102.19 331.737 1102.03 331.667 1101.86 331.667V331.667ZM1093.59 331.5V330.667C1093.59 330.578 1093.62 330.493 1093.68 330.431C1093.74 330.368 1093.82 330.333 1093.91 330.333H1097.09C1097.18 330.333 1097.26 330.368 1097.32 330.431C1097.38 330.493 1097.41 330.578 1097.41 330.667V331.5C1097.41 331.544 1097.39 331.587 1097.36 331.618C1097.33 331.649 1097.29 331.667 1097.25 331.667H1093.75C1093.71 331.667 1093.67 331.649 1093.64 331.618C1093.61 331.587 1093.59 331.544 1093.59 331.5Z" fill="black"/>
<rect x="1123.5" y="316.5" width="108" height="40" rx="6" fill="url(#paint4_radial_303_9615)"/>
<path d="M1175.15 342.5V330.864H1182.72V332.631H1177.26V335.79H1182.32V337.557H1177.26V340.733H1182.76V342.5H1175.15ZM1188.01 342.653C1187.33 342.653 1186.71 342.477 1186.17 342.125C1185.63 341.773 1185.2 341.261 1184.89 340.591C1184.57 339.92 1184.42 339.106 1184.42 338.148C1184.42 337.178 1184.58 336.36 1184.89 335.693C1185.22 335.023 1185.65 334.517 1186.2 334.176C1186.74 333.831 1187.35 333.659 1188.02 333.659C1188.53 333.659 1188.95 333.746 1189.28 333.92C1189.61 334.091 1189.87 334.297 1190.07 334.54C1190.26 334.778 1190.41 335.004 1190.51 335.216H1190.6V330.864H1192.66V342.5H1190.64V341.125H1190.51C1190.41 341.337 1190.25 341.562 1190.05 341.801C1189.85 342.036 1189.59 342.237 1189.26 342.403C1188.93 342.57 1188.51 342.653 1188.01 342.653ZM1188.59 340.966C1189.02 340.966 1189.39 340.848 1189.7 340.614C1190.01 340.375 1190.24 340.044 1190.4 339.619C1190.56 339.195 1190.64 338.701 1190.64 338.136C1190.64 337.572 1190.56 337.081 1190.4 336.665C1190.25 336.248 1190.01 335.924 1189.71 335.693C1189.4 335.462 1189.03 335.347 1188.59 335.347C1188.13 335.347 1187.75 335.466 1187.44 335.705C1187.13 335.943 1186.9 336.273 1186.75 336.693C1186.59 337.114 1186.51 337.595 1186.51 338.136C1186.51 338.682 1186.59 339.169 1186.75 339.597C1186.91 340.021 1187.14 340.356 1187.45 340.602C1187.76 340.845 1188.14 340.966 1188.59 340.966ZM1194.85 342.5V333.773H1196.91V342.5H1194.85ZM1195.89 332.534C1195.56 332.534 1195.28 332.426 1195.05 332.21C1194.81 331.991 1194.69 331.727 1194.69 331.42C1194.69 331.11 1194.81 330.847 1195.05 330.631C1195.28 330.411 1195.56 330.301 1195.89 330.301C1196.22 330.301 1196.5 330.411 1196.73 330.631C1196.96 330.847 1197.08 331.11 1197.08 331.42C1197.08 331.727 1196.96 331.991 1196.73 332.21C1196.5 332.426 1196.22 332.534 1195.89 332.534ZM1203.38 333.773V335.364H1198.37V333.773H1203.38ZM1199.61 331.682H1201.66V339.875C1201.66 340.152 1201.7 340.364 1201.79 340.511C1201.87 340.655 1201.99 340.754 1202.13 340.807C1202.27 340.86 1202.42 340.886 1202.59 340.886C1202.72 340.886 1202.84 340.877 1202.95 340.858C1203.06 340.839 1203.14 340.822 1203.2 340.807L1203.54 342.415C1203.43 342.453 1203.28 342.494 1203.07 342.54C1202.87 342.585 1202.62 342.612 1202.33 342.619C1201.82 342.634 1201.35 342.557 1200.94 342.386C1200.53 342.212 1200.2 341.943 1199.96 341.58C1199.72 341.216 1199.6 340.761 1199.61 340.216V331.682Z" fill="black"/>
<path d="M1156.71 330.7H1151.1C1150.68 330.7 1150.27 330.868 1149.97 331.169C1149.67 331.469 1149.5 331.877 1149.5 332.302V343.519C1149.5 343.944 1149.67 344.351 1149.97 344.652C1150.27 344.952 1150.68 345.121 1151.1 345.121H1162.32C1162.74 345.121 1163.15 344.952 1163.45 344.652C1163.75 344.351 1163.92 343.944 1163.92 343.519V337.91" stroke="black" stroke-width="2" stroke-linecap="round"/>
<path d="M1162.72 329.498C1163.04 329.179 1163.47 329 1163.92 329C1164.37 329 1164.81 329.179 1165.12 329.498C1165.44 329.817 1165.62 330.249 1165.62 330.7C1165.62 331.15 1165.44 331.583 1165.12 331.901L1157.51 339.513L1154.31 340.314L1155.11 337.109L1162.72 329.498Z" stroke="black" stroke-width="2" stroke-linecap="round"/>
</g>
<g filter="url(#filter4_d_303_9615)">
<rect x="761.5" y="386" width="486" height="75" rx="6" fill="white" shape-rendering="crispEdges"/>
<path d="M761.5 392C761.5 388.686 764.186 386 767.5 386H836.5V461H767.5C764.186 461 761.5 458.314 761.5 455V392Z" fill="#FFECB8"/>
<circle cx="792.46" cy="411.846" r="3.68701" fill="#997100"/>
<circle cx="792.462" cy="422.907" r="3.68701" fill="#997100"/>
<circle cx="792.46" cy="433.968" r="3.68701" fill="#997100"/>
<circle cx="803.932" cy="411.846" r="3.68701" fill="#997100"/>
<circle cx="803.932" cy="422.907" r="3.68701" fill="#997100"/>
<circle cx="803.932" cy="433.968" r="3.68701" fill="#997100"/>
<path d="M848.25 417.875L853.875 412.25M853.875 412.25L859.5 417.875M853.875 412.25V429.125M870.75 429.125L865.125 434.75M865.125 434.75L859.5 429.125M865.125 434.75V417.875" stroke="black" stroke-width="1.5" stroke-linecap="round" stroke-linejoin="round"/>
<path d="M895.204 431.5V414.964H892.732V431.5H895.204Z" fill="black"/>
<rect x="1075.5" y="403.5" width="40" height="40" rx="6" fill="#CED4DA"/>
<path d="M1100.24 421H1090.76C1090.71 421 1090.67 421.009 1090.63 421.028C1090.59 421.047 1090.55 421.074 1090.52 421.108C1090.49 421.142 1090.47 421.183 1090.45 421.227C1090.44 421.271 1090.44 421.317 1090.44 421.363L1091.26 430.787C1091.29 431.119 1091.43 431.427 1091.67 431.651C1091.9 431.876 1092.21 432 1092.53 432H1098.47C1098.79 432 1099.1 431.876 1099.33 431.651C1099.57 431.427 1099.71 431.119 1099.74 430.787L1100.56 421.363C1100.56 421.317 1100.56 421.271 1100.54 421.227C1100.53 421.183 1100.51 421.143 1100.48 421.109C1100.45 421.074 1100.41 421.047 1100.37 421.028C1100.33 421.01 1100.29 421 1100.24 421V421ZM1094.39 429.667C1094.39 429.799 1094.34 429.926 1094.25 430.02C1094.16 430.114 1094.04 430.167 1093.91 430.167C1093.78 430.167 1093.66 430.114 1093.57 430.02C1093.48 429.926 1093.43 429.799 1093.43 429.667V423.667C1093.43 423.534 1093.48 423.407 1093.57 423.313C1093.66 423.219 1093.78 423.167 1093.91 423.167C1094.04 423.167 1094.16 423.219 1094.25 423.313C1094.34 423.407 1094.39 423.534 1094.39 423.667V429.667ZM1097.57 429.667C1097.57 429.799 1097.52 429.926 1097.43 430.02C1097.34 430.114 1097.22 430.167 1097.09 430.167C1096.97 430.167 1096.84 430.114 1096.75 430.02C1096.67 429.926 1096.61 429.799 1096.61 429.667V423.667C1096.61 423.534 1096.67 423.407 1096.75 423.313C1096.84 423.219 1096.97 423.167 1097.09 423.167C1097.22 423.167 1097.34 423.219 1097.43 423.313C1097.52 423.407 1097.57 423.534 1097.57 423.667V429.667ZM1101.86 418.667H1098.84C1098.8 418.667 1098.76 418.649 1098.73 418.618C1098.7 418.587 1098.68 418.544 1098.68 418.5V417.667C1098.68 417.225 1098.51 416.801 1098.22 416.488C1097.92 416.176 1097.51 416 1097.09 416H1093.91C1093.49 416 1093.08 416.176 1092.78 416.488C1092.49 416.801 1092.32 417.225 1092.32 417.667V418.5C1092.32 418.544 1092.3 418.587 1092.27 418.618C1092.24 418.649 1092.2 418.667 1092.16 418.667H1089.14C1088.97 418.667 1088.81 418.737 1088.69 418.862C1088.57 418.987 1088.5 419.157 1088.5 419.333C1088.5 419.51 1088.57 419.68 1088.69 419.805C1088.81 419.93 1088.97 420 1089.14 420H1101.86C1102.03 420 1102.19 419.93 1102.31 419.805C1102.43 419.68 1102.5 419.51 1102.5 419.333C1102.5 419.157 1102.43 418.987 1102.31 418.862C1102.19 418.737 1102.03 418.667 1101.86 418.667V418.667ZM1093.59 418.5V417.667C1093.59 417.578 1093.62 417.493 1093.68 417.431C1093.74 417.368 1093.82 417.333 1093.91 417.333H1097.09C1097.18 417.333 1097.26 417.368 1097.32 417.431C1097.38 417.493 1097.41 417.578 1097.41 417.667V418.5C1097.41 418.544 1097.39 418.587 1097.36 418.618C1097.33 418.649 1097.29 418.667 1097.25 418.667H1093.75C1093.71 418.667 1093.67 418.649 1093.64 418.618C1093.61 418.587 1093.59 418.544 1093.59 418.5Z" fill="black"/>
<rect x="1123.5" y="403.5" width="108" height="40" rx="6" fill="url(#paint5_radial_303_9615)"/>
<path d="M1175.15 429.5V417.864H1182.72V419.631H1177.26V422.79H1182.32V424.557H1177.26V427.733H1182.76V429.5H1175.15ZM1188.01 429.653C1187.33 429.653 1186.71 429.477 1186.17 429.125C1185.63 428.773 1185.2 428.261 1184.89 427.591C1184.57 426.92 1184.42 426.106 1184.42 425.148C1184.42 424.178 1184.58 423.36 1184.89 422.693C1185.22 422.023 1185.65 421.517 1186.2 421.176C1186.74 420.831 1187.35 420.659 1188.02 420.659C1188.53 420.659 1188.95 420.746 1189.28 420.92C1189.61 421.091 1189.87 421.297 1190.07 421.54C1190.26 421.778 1190.41 422.004 1190.51 422.216H1190.6V417.864H1192.66V429.5H1190.64V428.125H1190.51C1190.41 428.337 1190.25 428.562 1190.05 428.801C1189.85 429.036 1189.59 429.237 1189.26 429.403C1188.93 429.57 1188.51 429.653 1188.01 429.653ZM1188.59 427.966C1189.02 427.966 1189.39 427.848 1189.7 427.614C1190.01 427.375 1190.24 427.044 1190.4 426.619C1190.56 426.195 1190.64 425.701 1190.64 425.136C1190.64 424.572 1190.56 424.081 1190.4 423.665C1190.25 423.248 1190.01 422.924 1189.71 422.693C1189.4 422.462 1189.03 422.347 1188.59 422.347C1188.13 422.347 1187.75 422.466 1187.44 422.705C1187.13 422.943 1186.9 423.273 1186.75 423.693C1186.59 424.114 1186.51 424.595 1186.51 425.136C1186.51 425.682 1186.59 426.169 1186.75 426.597C1186.91 427.021 1187.14 427.356 1187.45 427.602C1187.76 427.845 1188.14 427.966 1188.59 427.966ZM1194.85 429.5V420.773H1196.91V429.5H1194.85ZM1195.89 419.534C1195.56 419.534 1195.28 419.426 1195.05 419.21C1194.81 418.991 1194.69 418.727 1194.69 418.42C1194.69 418.11 1194.81 417.847 1195.05 417.631C1195.28 417.411 1195.56 417.301 1195.89 417.301C1196.22 417.301 1196.5 417.411 1196.73 417.631C1196.96 417.847 1197.08 418.11 1197.08 418.42C1197.08 418.727 1196.96 418.991 1196.73 419.21C1196.5 419.426 1196.22 419.534 1195.89 419.534ZM1203.38 420.773V422.364H1198.37V420.773H1203.38ZM1199.61 418.682H1201.66V426.875C1201.66 427.152 1201.7 427.364 1201.79 427.511C1201.87 427.655 1201.99 427.754 1202.13 427.807C1202.27 427.86 1202.42 427.886 1202.59 427.886C1202.72 427.886 1202.84 427.877 1202.95 427.858C1203.06 427.839 1203.14 427.822 1203.2 427.807L1203.54 429.415C1203.43 429.453 1203.28 429.494 1203.07 429.54C1202.87 429.585 1202.62 429.612 1202.33 429.619C1201.82 429.634 1201.35 429.557 1200.94 429.386C1200.53 429.212 1200.2 428.943 1199.96 428.58C1199.72 428.216 1199.6 427.761 1199.61 427.216V418.682Z" fill="black"/>
<path d="M1156.71 417.7H1151.1C1150.68 417.7 1150.27 417.868 1149.97 418.169C1149.67 418.469 1149.5 418.877 1149.5 419.302V430.519C1149.5 430.944 1149.67 431.351 1149.97 431.652C1150.27 431.952 1150.68 432.121 1151.1 432.121H1162.32C1162.74 432.121 1163.15 431.952 1163.45 431.652C1163.75 431.351 1163.92 430.944 1163.92 430.519V424.91" stroke="black" stroke-width="2" stroke-linecap="round"/>
<path d="M1162.72 416.498C1163.04 416.179 1163.47 416 1163.92 416C1164.37 416 1164.81 416.179 1165.12 416.498C1165.44 416.817 1165.62 417.249 1165.62 417.7C1165.62 418.15 1165.44 418.583 1165.12 418.901L1157.51 426.513L1154.31 427.314L1155.11 424.109L1162.72 416.498Z" stroke="black" stroke-width="2" stroke-linecap="round"/>
</g>
<g filter="url(#filter5_d_303_9615)">
<rect x="761.5" y="473" width="486" height="75" rx="6" fill="white" shape-rendering="crispEdges"/>
<path d="M761.5 479C761.5 475.686 764.186 473 767.5 473H836.5V548H767.5C764.186 548 761.5 545.314 761.5 542V479Z" fill="#FFECB8"/>
<circle cx="792.46" cy="498.846" r="3.68701" fill="#997100"/>
<circle cx="803.932" cy="498.846" r="3.68701" fill="#997100"/>
<path d="M848.25 504.875L853.875 499.25M853.875 499.25L859.5 504.875M853.875 499.25V516.125M870.75 516.125L865.125 521.75M865.125 521.75L859.5 516.125M865.125 521.75V504.875" stroke="black" stroke-width="1.5" stroke-linecap="round" stroke-linejoin="round"/>
<rect x="1075.5" y="490.5" width="40" height="40" rx="6" fill="#CED4DA"/>
<rect x="1123.5" y="490.5" width="108" height="40" rx="6" fill="url(#paint6_radial_303_9615)"/>
</g>
</g>
<defs>
<filter id="filter0_d_303_9615" x="757.5" y="36" width="494" height="83" filterUnits="userSpaceOnUse" color-interpolation-filters="sRGB">
<feFlood flood-opacity="0" result="BackgroundImageFix"/>
<feColorMatrix in="SourceAlpha" type="matrix" values="0 0 0 0 0 0 0 0 0 0 0 0 0 0 0 0 0 0 127 0" result="hardAlpha"/>
<feOffset dy="2"/>
<feGaussianBlur stdDeviation="2"/>
<feComposite in2="hardAlpha" operator="out"/>
<feColorMatrix type="matrix" values="0 0 0 0 0 0 0 0 0 0 0 0 0 0 0 0 0 0 0.16 0"/>
<feBlend mode="normal" in2="BackgroundImageFix" result="effect1_dropShadow_303_9615"/>
<feBlend mode="normal" in="SourceGraphic" in2="effect1_dropShadow_303_9615" result="shape"/>
</filter>
<filter id="filter1_d_303_9615" x="757.5" y="123" width="494" height="83" filterUnits="userSpaceOnUse" color-interpolation-filters="sRGB">
<feFlood flood-opacity="0" result="BackgroundImageFix"/>
<feColorMatrix in="SourceAlpha" type="matrix" values="0 0 0 0 0 0 0 0 0 0 0 0 0 0 0 0 0 0 127 0" result="hardAlpha"/>
<feOffset dy="2"/>
<feGaussianBlur stdDeviation="2"/>
<feComposite in2="hardAlpha" operator="out"/>
<feColorMatrix type="matrix" values="0 0 0 0 0 0 0 0 0 0 0 0 0 0 0 0 0 0 0.16 0"/>
<feBlend mode="normal" in2="BackgroundImageFix" result="effect1_dropShadow_303_9615"/>
<feBlend mode="normal" in="SourceGraphic" in2="effect1_dropShadow_303_9615" result="shape"/>
</filter>
<filter id="filter2_d_303_9615" x="757.5" y="210" width="494" height="83" filterUnits="userSpaceOnUse" color-interpolation-filters="sRGB">
<feFlood flood-opacity="0" result="BackgroundImageFix"/>
<feColorMatrix in="SourceAlpha" type="matrix" values="0 0 0 0 0 0 0 0 0 0 0 0 0 0 0 0 0 0 127 0" result="hardAlpha"/>
<feOffset dy="2"/>
<feGaussianBlur stdDeviation="2"/>
<feComposite in2="hardAlpha" operator="out"/>
<feColorMatrix type="matrix" values="0 0 0 0 0 0 0 0 0 0 0 0 0 0 0 0 0 0 0.16 0"/>
<feBlend mode="normal" in2="BackgroundImageFix" result="effect1_dropShadow_303_9615"/>
<feBlend mode="normal" in="SourceGraphic" in2="effect1_dropShadow_303_9615" result="shape"/>
</filter>
<filter id="filter3_d_303_9615" x="757.5" y="297" width="494" height="83" filterUnits="userSpaceOnUse" color-interpolation-filters="sRGB">
<feFlood flood-opacity="0" result="BackgroundImageFix"/>
<feColorMatrix in="SourceAlpha" type="matrix" values="0 0 0 0 0 0 0 0 0 0 0 0 0 0 0 0 0 0 127 0" result="hardAlpha"/>
<feOffset dy="2"/>
<feGaussianBlur stdDeviation="2"/>
<feComposite in2="hardAlpha" operator="out"/>
<feColorMatrix type="matrix" values="0 0 0 0 0 0 0 0 0 0 0 0 0 0 0 0 0 0 0.16 0"/>
<feBlend mode="normal" in2="BackgroundImageFix" result="effect1_dropShadow_303_9615"/>
<feBlend mode="normal" in="SourceGraphic" in2="effect1_dropShadow_303_9615" result="shape"/>
</filter>
<filter id="filter4_d_303_9615" x="757.5" y="384" width="494" height="83" filterUnits="userSpaceOnUse" color-interpolation-filters="sRGB">
<feFlood flood-opacity="0" result="BackgroundImageFix"/>
<feColorMatrix in="SourceAlpha" type="matrix" values="0 0 0 0 0 0 0 0 0 0 0 0 0 0 0 0 0 0 127 0" result="hardAlpha"/>
<feOffset dy="2"/>
<feGaussianBlur stdDeviation="2"/>
<feComposite in2="hardAlpha" operator="out"/>
<feColorMatrix type="matrix" values="0 0 0 0 0 0 0 0 0 0 0 0 0 0 0 0 0 0 0.16 0"/>
<feBlend mode="normal" in2="BackgroundImageFix" result="effect1_dropShadow_303_9615"/>
<feBlend mode="normal" in="SourceGraphic" in2="effect1_dropShadow_303_9615" result="shape"/>
</filter>
<filter id="filter5_d_303_9615" x="757.5" y="471" width="494" height="83" filterUnits="userSpaceOnUse" color-interpolation-filters="sRGB">
<feFlood flood-opacity="0" result="BackgroundImageFix"/>
<feColorMatrix in="SourceAlpha" type="matrix" values="0 0 0 0 0 0 0 0 0 0 0 0 0 0 0 0 0 0 127 0" result="hardAlpha"/>
<feOffset dy="2"/>
<feGaussianBlur stdDeviation="2"/>
<feComposite in2="hardAlpha" operator="out"/>
<feColorMatrix type="matrix" values="0 0 0 0 0 0 0 0 0 0 0 0 0 0 0 0 0 0 0.16 0"/>
<feBlend mode="normal" in2="BackgroundImageFix" result="effect1_dropShadow_303_9615"/>
<feBlend mode="normal" in="SourceGraphic" in2="effect1_dropShadow_303_9615" result="shape"/>
</filter>
<linearGradient id="paint0_linear_303_9615" x1="0" y1="0" x2="1500" y2="500" gradientUnits="userSpaceOnUse">
<stop stop-color="#444444"/>
<stop offset="1" stop-color="#6C757D"/>
</linearGradient>
<radialGradient id="paint1_radial_303_9615" cx="0" cy="0" r="1" gradientUnits="userSpaceOnUse" gradientTransform="translate(1182.75 48.5) rotate(90.2286) scale(47.0004 126.913)">
<stop stop-color="#FFD45C"/>
<stop offset="1" stop-color="#FFBC00"/>
</radialGradient>
<radialGradient id="paint2_radial_303_9615" cx="0" cy="0" r="1" gradientUnits="userSpaceOnUse" gradientTransform="translate(1182.75 135.5) rotate(90.2286) scale(47.0004 126.913)">
<stop stop-color="#FFD45C"/>
<stop offset="1" stop-color="#FFBC00"/>
</radialGradient>
<radialGradient id="paint3_radial_303_9615" cx="0" cy="0" r="1" gradientUnits="userSpaceOnUse" gradientTransform="translate(1182.75 222.5) rotate(90.2286) scale(47.0004 126.913)">
<stop stop-color="#FFD45C"/>
<stop offset="1" stop-color="#FFBC00"/>
</radialGradient>
<radialGradient id="paint4_radial_303_9615" cx="0" cy="0" r="1" gradientUnits="userSpaceOnUse" gradientTransform="translate(1182.75 309.5) rotate(90.2286) scale(47.0004 126.913)">
<stop stop-color="#FFD45C"/>
<stop offset="1" stop-color="#FFBC00"/>
</radialGradient>
<radialGradient id="paint5_radial_303_9615" cx="0" cy="0" r="1" gradientUnits="userSpaceOnUse" gradientTransform="translate(1182.75 396.5) rotate(90.2286) scale(47.0004 126.913)">
<stop stop-color="#FFD45C"/>
<stop offset="1" stop-color="#FFBC00"/>
</radialGradient>
<radialGradient id="paint6_radial_303_9615" cx="0" cy="0" r="1" gradientUnits="userSpaceOnUse" gradientTransform="translate(1182.75 483.5) rotate(90.2286) scale(47.0004 126.913)">
<stop stop-color="#FFD45C"/>
<stop offset="1" stop-color="#FFBC00"/>
</radialGradient>
<clipPath id="clip0_303_9615">
<rect width="1500" height="500" fill="white"/>
</clipPath>
</defs>
</svg>
